<svg xmlns="http://www.w3.org/2000/svg" width="29.719" height="25.281" viewBox="0 0 29.719 25.281" data-prefix="is26nt9ye"><path d="m11.128 23.676.532-7.074c.308-.2.514-.529.8-.746.506-.386.914-.868 1.42-1.254l.3-.328c1.248-.953 2.242-2.212 3.491-3.164.368-.281.66-.669 1.035-.955.485-.37.869-.878 1.361-1.253l.3-.328c.364-.278.649-.653 1.005-.926.633-.483 1.142-1.1 1.775-1.582.238-.181.414-.475.651-.657a1.5 1.5 0 0 0 .769-.9 1.11 1.11 0 0 0-1.212.239c-.983.651-2 1.306-2.988 1.94-3.014 1.927-6.036 3.78-9.053 5.7q-1.188.756-2.4 1.522a3.3 3.3 0 0 1-1.183.686 7.5 7.5 0 0 0-1.45-.448c-1.284-.435-2.65-.82-3.934-1.254a7.5 7.5 0 0 1-2.16-.746l-.177-.269c-.023-.978.752-1.183 1.479-1.492 1.3-.556 2.664-1 3.994-1.552 4.253-1.78 8.674-3.3 12.928-5.074 1.457-.609 2.948-1.092 4.379-1.7C24.385 1.382 26.031.834 27.612.18a1.49 1.49 0 0 1 1.834.3 3.15 3.15 0 0 1 .059 2.447c-.095.342-.081.65-.178.985-.209.73-.261 1.51-.473 2.269-.623 2.228-.861 4.636-1.479 6.865-.173.625-.18 1.225-.355 1.85-.622 2.228-.861 4.635-1.479 6.865-.293 1.055-.308 2.765-1.065 3.313-.816.59-1.906-.22-2.426-.6-1.259-.911-2.463-1.935-3.728-2.835-.586-.418-1.139-.873-1.715-1.284a4.6 4.6 0 0 1-.74-.537 3.2 3.2 0 0 0-.68.657c-.333.253-.563.618-.888.865a14 14 0 0 0-1.39 1.313 2.54 2.54 0 0 1-1.781 1.023" fill-rule="evenodd" class="path-iu15mjz5q"/></svg>