<svg width="512" height="512" viewBox="0 0 512 512" fill="none" xmlns="http://www.w3.org/2000/svg">
<g clip-path="url(#clip0_4069_3070)">
<path fill-rule="evenodd" clip-rule="evenodd" d="M591.094 80.7518V169.675H639.657V111.319H653.241C688.883 111.319 711.884 95.1949 718.093 65.8571C724.53 35.4355 714.577 10.6383 691.196 -1.1608C679.717 -6.95335 669.292 -8.12186 628.904 -8.14826L591.094 -8.17188V80.7518ZM746.497 80.7393V169.649L814.833 170.01L883.169 170.37L883.545 197.811L883.921 225.253H931.039V130.771H893.576V-8.17188H845.012V130.771H796.448V-8.17188H746.497V80.7393ZM954.627 80.7518V169.675H1003.19V30.7322H1050.37V169.675H1100.32V-8.17188H954.627V80.7518ZM1137.78 80.7518V169.675H1186.35V81.5382L1211.89 125.259L1237.43 168.981L1265.22 169.357L1293.02 169.732L1263.88 123.216L1234.73 76.7002L1260.94 36.001C1275.35 13.6158 1287.6 -5.47915 1288.16 -6.43508C1288.97 -7.8009 1283.46 -8.16354 1262.39 -8.13297L1235.6 -8.09407L1211.32 33.3999L1187.04 74.8953L1186.67 33.361L1186.31 -8.17188H1137.78V80.7518ZM208.091 25.9192C190.972 31.2033 179.87 50.8554 184.428 67.8065C192.633 98.3212 233.335 104.832 249.295 78.1827C266.458 49.5257 240.065 16.0487 208.091 25.9192ZM354.307 33.5903C346.763 37.3293 341.709 45.2671 315.109 95.1505C309.109 106.404 312.964 105.37 239.516 115.411C222.817 117.694 208.839 119.877 208.455 120.262C207.675 121.043 207.926 141.915 208.832 151.613C209.153 155.052 209.784 166.306 210.233 176.623L211.054 195.38L198.667 207.683L186.28 219.987L178.899 206.315C174.839 198.795 171.595 191.697 171.691 190.538C171.786 189.38 176.652 173.198 182.504 154.578C191.42 126.206 192.841 120.421 191.273 118.864C189.137 116.742 154.015 109.927 145.255 109.935C142.064 109.938 124.158 112.082 105.466 114.701C72.4708 119.324 71.3774 119.578 67.9336 123.438C62.4264 129.611 29.2783 192.497 27.5258 200.096C24.236 214.369 34.8561 225.386 47.788 221.114C55.8634 218.445 60.6851 212.274 77.0122 183.725C85.4068 169.046 93.7417 156.074 95.5344 154.897C99.6096 152.223 146.397 148.981 148.633 151.22C149.571 152.159 149.09 157.364 147.174 167.052C136.562 220.682 134.215 233.599 134.068 239.147L133.901 245.4L182.781 245.765L231.66 246.13L232.345 242.986C232.721 241.256 233.937 233.589 235.045 225.947C241.618 180.662 245.954 153.587 246.76 152.812C247.265 152.326 265.747 149.216 287.831 145.902C334.809 138.854 332.601 139.883 342.268 120.505C345.741 113.542 354.407 96.904 361.526 83.5307C376.502 55.3974 378.72 48.9171 376.228 40.5861C373.384 31.081 364.859 28.3605 354.307 33.5903ZM639.657 51.5848V72.8112L648.161 71.9206C662.943 70.3741 670.183 63.0657 670.183 49.6924C670.183 36.836 664.892 32.1675 649.034 31.031L639.657 30.3585V51.5848ZM474.072 145.708C473.723 146.28 471.513 151.752 469.16 157.865C459.072 184.067 431.458 220.397 402.456 245.62C395.565 251.612 389.922 257.278 389.915 258.212C389.905 259.441 394.88 260.015 408.01 260.296L426.117 260.683L414.336 284.304C388.823 335.449 368.157 364.384 338.714 390.191C300.501 423.682 245.462 449.029 176.221 465.024C160.71 468.608 156.727 470.187 158.566 472.028C159.92 473.386 196.124 470.118 215.362 466.903C318.36 449.685 412.913 380.957 456.686 291.488C461.237 282.188 465.733 273.019 466.676 271.114C469.4 265.616 472.541 266.102 477.267 272.753L486.705 286.033C494.03 296.339 497.398 296.096 496.239 285.346C495.766 280.951 494.413 265.167 493.231 250.27C490.633 217.514 488.169 199.165 482.73 172.071C477.758 147.313 476.122 142.331 474.072 145.708ZM14.397 223.403C11.3583 229.625 10.4258 233.787 9.96101 243.203C9.39212 254.771 9.24504 255.209 5.03665 257.922C-1.72896 262.285 -1.39041 267.243 7.59804 295.364C15.6915 320.685 17.6257 323.902 24.7535 323.902C33.0704 323.902 94.9877 302.891 98.8659 298.752C103.842 293.442 103.929 294.169 94.8989 265.735C86.1893 238.309 83.739 234.484 75.3374 235.209C70.7086 235.61 70.4825 235.394 68.0931 228.326C64.8962 218.868 64.5938 218.652 58.9201 221.711C53.37 224.704 53.549 223.972 56.2172 232.777C57.355 236.532 58.1279 239.75 57.9364 239.928C57.7435 240.104 49.7818 242.74 40.2425 245.783L22.8984 251.317L22.4821 244.61C22.1991 240.066 23.0246 235.671 25.0421 230.974C27.9448 224.218 27.9559 223.938 25.5056 219.785C21.7412 213.404 18.8176 214.355 14.397 223.403ZM1182.18 250.879C1182.18 265.035 1212.8 267.629 1221 254.167C1224.84 247.857 1224.66 247.484 1217.72 247.484C1212.73 247.484 1211.22 248.12 1209.32 251.034C1206.13 255.908 1195.63 255.599 1194.92 250.61C1194.22 245.659 1182.18 245.915 1182.18 250.879ZM586.931 253.679C586.931 254.031 584.121 267.568 580.687 283.762C573.006 319.987 572.963 316.955 581.145 316.955H587.845L590.232 305.84L592.617 294.724H599.193C621.956 294.724 633.73 268.046 616.191 256.209C611.891 253.308 586.931 251.149 586.931 253.679ZM69.5722 262.654C58.4886 277.912 42.7581 283.027 26.2382 276.741L19.1423 274.04L21.7134 276.888C35.9731 292.678 65.146 286.634 72.9079 266.283C76.4516 256.989 74.9073 255.309 69.5722 262.654ZM132.124 261.727C131.341 262.681 121.938 286.855 111.226 315.446L91.7492 367.431L82.8593 376.581C23.8835 437.294 19.6182 442.724 21.2611 454.994C22.9344 467.495 37.2552 472.437 50.8752 465.215C56.9693 461.983 125.103 397.569 127.549 392.727C128.334 391.172 136.234 370.518 145.104 346.828C153.973 323.138 161.997 302.948 162.934 301.963C165.82 298.926 239.637 316.893 243.698 321.62C247.288 325.799 248.12 333.578 248.775 369.059C249.152 389.523 249.602 393.548 252.138 399.181C260.09 416.835 282.717 412.455 287 392.433C288.705 384.462 289.161 329.809 287.705 307.943C286.435 288.871 285.668 288.158 260.097 282.281C228.813 275.089 229.755 275.49 228.947 269.02L228.253 263.462L215.766 262.576C186.401 260.492 133.575 259.955 132.124 261.727ZM598.774 265.894C597.38 270.225 595.262 282.688 595.822 283.249C598.998 286.429 610.519 277.851 610.519 272.306C610.519 266.754 600.291 261.171 598.774 265.894ZM643.548 269.772C626.99 278.528 622.609 308.869 636.836 316.237C642.023 318.923 654.944 318.952 661.299 316.294C665.671 314.464 666.154 313.751 665.764 309.694C665.453 306.46 664.726 305.302 663.245 305.688C648.11 309.641 642.432 308.346 642.432 300.945C642.432 297.81 642.969 297.503 648.469 297.503C664.988 297.503 676.242 286.566 671.505 275.115C668.146 266.994 653.935 264.278 643.548 269.772ZM686.14 268.625C683.85 269.434 681.817 270.22 681.623 270.375C681.43 270.527 681.976 272.678 682.837 275.154C684.185 279.024 684.889 279.534 687.862 278.786C696.96 276.499 698.827 276.476 700.609 278.626C703.055 281.576 700.754 284.32 694.007 286.505C683.56 289.886 678.346 293.385 676.244 298.424C671.609 309.53 678.818 318.345 692.535 318.345C704.916 318.345 710.421 315.587 710.421 309.384C710.421 306.671 710.22 304.45 709.975 304.45C709.729 304.45 706.592 305.452 703.004 306.676C687.728 311.889 684.115 303.469 699.064 297.498C713.219 291.844 718.359 284.4 714.519 275.115C711.438 267.667 697.731 264.532 686.14 268.625ZM788.591 270.429C773.042 279.762 770.568 308.762 784.672 316.368C791.073 319.819 803.093 318.568 809.334 313.801C822.9 303.44 823.958 274.482 810.987 268.564C804.858 265.767 794.987 266.59 788.591 270.429ZM897.303 269.531C882.961 279.002 878.599 310.417 890.724 316.914C896.578 320.051 906.293 317.745 910.694 312.173C911.365 311.323 911.558 312.052 911.15 313.904C910.495 316.887 910.834 317.076 916.134 316.683L921.822 316.261L926.893 292.64L931.966 269.02L927.049 268.571C923.648 268.261 921.603 268.846 920.418 270.469C918.828 272.646 918.435 272.603 914.972 269.876C910.316 266.209 902.564 266.058 897.303 269.531ZM958.818 269.296C953.028 272.298 948.772 278.344 944.988 288.949C940.252 302.223 937.565 306.547 934.128 306.425C931.393 306.326 931.039 307.003 931.039 312.33V318.345H937.39C945.243 318.345 950.158 314.003 953.9 303.756C961.025 284.254 962.37 281.558 965.995 279.525C971.759 276.295 971.978 278.125 968.021 296.456C963.294 318.353 963.089 316.955 971.042 316.955H977.744L982.625 293.682C985.542 279.78 987.008 269.854 986.267 269.027C983.879 266.362 964.107 266.556 958.818 269.296ZM1320.66 269.772C1304.11 278.528 1299.73 308.869 1313.95 316.237C1319.14 318.923 1332.06 318.952 1338.42 316.294C1342.79 314.464 1343.27 313.751 1342.88 309.694C1342.57 306.46 1341.84 305.302 1340.36 305.688C1325.23 309.641 1319.55 308.346 1319.55 300.945C1319.55 297.81 1320.09 297.503 1325.59 297.503C1342.1 297.503 1353.36 286.566 1348.62 275.115C1345.26 266.994 1331.05 264.278 1320.66 269.772ZM1435.6 270.368C1430.81 273.622 1430.55 273.658 1430.55 271.062C1430.55 268.816 1429.6 268.325 1425.24 268.325H1419.92L1415.49 289.514C1413.05 301.167 1410.69 312.109 1410.24 313.829C1409.46 316.766 1409.84 316.955 1416.42 316.955C1424.34 316.955 1423.51 318.224 1427.21 300.493C1430.62 284.098 1437.52 274.704 1442.48 279.675C1444.72 281.918 1443.69 289.639 1437.93 313.829C1437.24 316.757 1437.63 316.955 1444.18 316.955H1451.18L1453.47 306.187C1458.33 283.319 1465.01 273.156 1470.67 279.995C1471.91 281.486 1471.61 285.116 1469.39 295.626C1468.16 301.462 1466.92 307.298 1465.69 313.134C1464.9 316.909 1464.98 316.955 1472 316.955C1475.92 316.955 1479.12 316.652 1479.12 316.283C1479.12 315.913 1480.73 307.963 1482.7 298.618C1486.56 280.303 1486.37 275.181 1481.63 270.129C1476.8 264.981 1465.21 266.533 1459.8 273.048C1458.26 274.914 1457.62 274.668 1454.58 271.055C1450.08 265.705 1442.85 265.442 1435.6 270.368ZM1515.3 270.533C1511.19 273.994 1511.03 274.02 1511.03 271.228C1511.03 268.792 1510.18 268.325 1505.75 268.325H1500.47L1493.24 302.714C1489.27 321.628 1486.03 337.57 1486.04 338.144C1486.05 338.718 1489.11 339.186 1492.84 339.186H1499.63L1502.1 326.073L1504.57 312.961L1507.98 315.652C1520.69 325.66 1538.78 307.967 1538.78 285.532C1538.78 269.317 1526.24 261.31 1515.3 270.533ZM726.606 277.704C720.51 305.244 720.439 309.28 725.948 315.152C730.511 320.018 739.438 319.587 745.557 314.207L750.263 310.069L749.607 313.512C748.992 316.726 749.329 316.955 754.66 316.955C757.803 316.955 760.373 316.687 760.373 316.359C760.373 316.031 762.558 305.758 765.229 293.528C771.219 266.106 771.377 268.325 763.427 268.325H756.768L753.683 281.872C750.037 297.887 747.205 304.188 742.736 306.226C734.472 309.997 734.308 303.3 741.891 271.451C742.589 268.525 742.189 268.325 735.659 268.325H728.681L726.606 277.704ZM831.328 289.797C828.809 301.606 826.414 312.548 826.006 314.113C825.33 316.7 825.893 316.955 832.269 316.955C840.042 316.955 839.577 317.556 842.24 304.103L843.822 296.114H858.638L856.73 304.103C853.694 316.825 853.743 316.955 861.409 316.955H868.092L872.637 295.766C875.134 284.113 877.503 273.172 877.897 271.451C878.567 268.528 878.16 268.325 871.622 268.325H864.629L862.709 277.009L860.79 285.693L853.594 286.113C849.637 286.345 846.409 286.032 846.422 285.418C846.433 284.805 847.288 280.709 848.32 276.314L850.197 268.325H835.907L831.328 289.797ZM998.503 278.147C992.092 306.571 992.388 312.103 1000.54 316.326C1005.47 318.88 1018.52 318.935 1024.51 316.429C1041.88 309.163 1037.56 287.777 1018.73 287.777H1010.47L1012.33 279.093C1013.36 274.318 1014.22 269.941 1014.24 269.367C1014.27 268.793 1011.24 268.325 1007.5 268.325H1000.72L998.503 278.147ZM1047.78 289.797C1045.26 301.606 1042.87 312.548 1042.46 314.113C1041.79 316.7 1042.35 316.955 1048.72 316.955C1056.5 316.955 1056.03 317.556 1058.7 304.103L1060.28 296.114H1075.09L1073.19 304.103C1070.15 316.825 1070.2 316.955 1077.86 316.955H1084.55L1089.09 295.766C1091.59 284.113 1093.96 273.172 1094.35 271.451C1095.02 268.528 1094.62 268.325 1088.08 268.325H1081.08L1079.16 277.009L1077.25 285.693L1070.05 286.113C1066.09 286.345 1062.86 286.032 1062.88 285.418C1062.89 284.805 1063.74 280.709 1064.78 276.314L1066.65 268.325H1052.36L1047.78 289.797ZM1105.41 277.704C1104.27 282.861 1102.57 290.605 1101.64 294.911C1098.14 311.096 1103.31 318.335 1118.36 318.335C1129.41 318.335 1138.4 312.055 1139.22 303.756C1140.28 292.976 1135.51 287.777 1124.57 287.777H1117.31L1119.17 279.093C1120.2 274.318 1121.06 269.941 1121.08 269.367C1121.11 268.793 1118.06 268.325 1114.3 268.325H1107.48L1105.41 277.704ZM1148.41 291.658C1145.62 304.491 1143.33 315.432 1143.33 315.973C1143.33 316.513 1146.45 316.955 1150.27 316.955C1154.09 316.955 1157.21 316.679 1157.21 316.341C1157.21 316.002 1159.39 305.65 1162.06 293.335C1164.73 281.02 1166.92 270.355 1166.92 269.634C1166.92 268.914 1163.9 268.325 1160.21 268.325H1153.49L1148.41 291.658ZM1177.55 277.704C1171.46 305.244 1171.39 309.28 1176.9 315.152C1181.46 320.018 1190.39 319.587 1196.51 314.207L1201.21 310.069L1200.56 313.512C1199.94 316.726 1200.28 316.955 1205.61 316.955C1208.75 316.955 1211.32 316.687 1211.32 316.359C1211.32 316.031 1213.51 305.758 1216.18 293.528C1222.17 266.106 1222.33 268.325 1214.38 268.325H1207.72L1204.63 281.872C1200.99 297.887 1198.15 304.188 1193.68 306.226C1185.42 309.997 1185.26 303.3 1192.84 271.451C1193.54 268.525 1193.14 268.325 1186.61 268.325H1179.63L1177.55 277.704ZM1255.26 277.704C1249.16 305.244 1249.09 309.28 1254.6 315.152C1258.94 319.78 1267.93 319.567 1273.71 314.699C1276.09 312.693 1278.18 311.286 1278.34 311.573C1278.51 311.859 1279.75 313.408 1281.09 315.016C1283.34 317.706 1283.38 318.618 1281.55 326.478L1279.56 335.018H1292.81L1295.16 322.86C1296.45 316.174 1297.81 309.661 1298.18 308.387C1298.69 306.624 1298.18 306.246 1296.03 306.807C1291.59 307.971 1291.46 304.859 1295.23 287.394C1299.65 266.908 1299.89 268.325 1292.08 268.325H1285.42L1282.33 281.872C1278.69 297.887 1275.86 304.188 1271.39 306.226C1263.12 309.997 1262.96 303.3 1270.54 271.451C1271.24 268.525 1270.84 268.325 1264.31 268.325H1257.33L1255.26 277.704ZM1359.98 289.797C1357.46 301.606 1355.06 312.548 1354.66 314.113C1353.98 316.7 1354.54 316.955 1360.92 316.955C1368.69 316.955 1368.23 317.556 1370.89 304.103L1372.47 296.114H1387.29L1385.38 304.103C1382.34 316.825 1382.39 316.955 1390.06 316.955H1396.74L1401.29 295.766C1403.78 284.113 1406.15 273.172 1406.55 271.451C1407.22 268.528 1406.81 268.325 1400.27 268.325H1393.28L1391.36 277.009L1389.44 285.693L1382.24 286.113C1378.29 286.345 1375.06 286.032 1375.07 285.418C1375.08 284.805 1375.94 280.709 1376.97 276.314L1378.85 268.325H1364.56L1359.98 289.797ZM650.411 278.135C647.702 279.745 643.208 287.627 644.347 288.768C645.667 290.089 654.783 287.716 657.031 285.465C662.008 280.481 656.577 274.465 650.411 278.135ZM1327.53 278.135C1324.82 279.745 1320.32 287.627 1321.46 288.768C1322.78 290.089 1331.9 287.716 1334.15 285.465C1339.12 280.481 1333.69 274.465 1327.53 278.135ZM796.117 279.974C789.586 284.94 787.04 303.028 792.461 305.934C799.265 309.58 806.161 300.65 806.161 288.193C806.161 278.767 802.089 275.434 796.117 279.974ZM905.585 279.625C899.306 283.28 895.22 302.018 899.861 305.875C907.566 312.278 919.488 287.524 912.209 280.234C909.664 277.687 909.018 277.627 905.585 279.625ZM1515.35 280.317C1508.9 284.846 1505.58 301.887 1510.38 305.875C1517.8 312.042 1529.88 287.403 1522.88 280.387C1519.99 277.497 1519.38 277.491 1515.35 280.317ZM1008.8 299.521C1004.76 304.392 1010.16 310.123 1016.63 307.842C1023.67 305.366 1021.88 297.503 1014.29 297.503C1012.19 297.503 1009.72 298.411 1008.8 299.521ZM1115.86 299.171C1113.57 301.467 1113.77 305.151 1116.32 307.264C1119.51 309.919 1125.29 306.881 1125.29 302.544C1125.29 297.869 1119.3 295.725 1115.86 299.171ZM1425.73 358.986C1425.42 359.942 1424.49 364.172 1423.66 368.391L1422.16 376.059L1415.07 377.744C1400.92 381.111 1393.18 391.141 1393.12 406.178C1393.08 415.483 1397.98 422.592 1406.34 425.353C1408.97 426.224 1411.11 427.357 1411.09 427.871C1411.06 428.71 1409.54 435.956 1407.62 444.436C1406.96 447.349 1407.37 447.562 1413.72 447.562C1420.5 447.562 1420.53 447.538 1421.46 442.352C1423.29 432.12 1425.13 426.72 1426.79 426.712C1452.38 426.595 1464.12 389.302 1441.87 378.785C1435.46 375.752 1435.7 376.909 1438.36 362.112L1439.24 357.249H1432.77C1428.82 357.249 1426.08 357.926 1425.73 358.986ZM598.919 378.743C594.129 381.997 593.869 382.034 593.869 379.438C593.869 377.191 592.917 376.701 588.554 376.701H583.239L578.807 397.89C576.369 409.543 574.005 420.485 573.552 422.205C572.781 425.142 573.154 425.331 579.738 425.331C587.626 425.331 586.78 426.594 590.44 409.353C593.959 392.775 598.878 385.186 604.869 387.09C608.547 388.26 608.503 390.419 604.401 409.768L601.074 425.467L608.127 425.052L615.181 424.636L618.345 410.047C622.606 390.399 622.578 383.699 618.217 378.988C613.68 374.085 605.918 373.987 598.919 378.743ZM642.9 378.805C627.351 388.137 624.877 417.138 638.981 424.743C645.382 428.195 657.402 426.944 663.643 422.177C677.209 411.816 678.267 382.857 665.296 376.94C659.167 374.143 649.296 374.966 642.9 378.805ZM698.627 377.205C680.324 385.717 676.332 416.325 692.438 424.664C709.281 433.386 733.6 417.088 722.338 404.626C719.894 401.92 719.933 401.751 723.764 398.451C729.238 393.737 729.324 385.272 723.955 379.895C719.429 375.364 705.719 373.908 698.627 377.205ZM904.404 378.147C887.847 386.903 883.465 417.245 897.693 424.613C902.879 427.298 915.8 427.328 922.155 424.67C926.527 422.84 927.01 422.127 926.62 418.07C926.309 414.835 925.582 413.678 924.102 414.064C908.966 418.017 903.289 416.722 903.289 409.321C903.289 406.186 903.826 405.879 909.326 405.879C925.844 405.879 937.099 394.941 932.362 383.491C929.002 375.37 914.791 372.653 904.404 378.147ZM1192.59 377.205C1174.29 385.717 1170.29 416.325 1186.4 424.664C1203.24 433.386 1227.56 417.088 1216.3 404.626C1213.86 401.92 1213.9 401.751 1217.73 398.451C1223.2 393.737 1223.29 385.272 1217.92 379.895C1213.39 375.364 1199.68 373.908 1192.59 377.205ZM1242.8 377.907C1228.46 387.377 1224.09 418.792 1236.22 425.289C1242.07 428.427 1251.79 426.12 1256.19 420.549C1256.86 419.698 1257.05 420.428 1256.65 422.28C1255.99 425.263 1256.33 425.452 1261.63 425.059L1267.32 424.636L1272.39 401.016L1277.46 377.396L1272.54 376.947C1269.14 376.637 1267.1 377.222 1265.91 378.845C1264.32 381.022 1263.93 380.979 1260.47 378.252C1255.81 374.585 1248.06 374.433 1242.8 377.907ZM1302.93 377.672C1297.14 380.673 1292.88 386.72 1289.1 397.324C1284.36 410.599 1281.67 414.923 1278.24 414.801C1275.5 414.702 1275.15 415.379 1275.15 420.706V426.72H1281.5C1289.35 426.72 1294.27 422.378 1298.01 412.131C1305.13 392.629 1306.48 389.934 1310.1 387.901C1315.87 384.671 1316.09 386.501 1312.13 404.831C1307.4 426.729 1307.2 425.331 1315.15 425.331H1321.85L1326.73 402.058C1329.65 388.155 1331.12 378.229 1330.38 377.403C1327.99 374.738 1308.22 374.932 1302.93 377.672ZM1581.36 377.907C1567.02 387.377 1562.65 418.792 1574.78 425.289C1580.63 428.427 1590.35 426.12 1594.75 420.549C1595.42 419.698 1595.61 420.428 1595.2 422.28C1594.55 425.263 1594.89 425.452 1600.19 425.059L1605.88 424.636L1610.95 401.016L1616.02 377.396L1611.1 376.947C1607.7 376.637 1605.66 377.222 1604.47 378.845C1602.88 381.022 1602.49 380.979 1599.03 378.252C1594.37 374.585 1586.62 374.433 1581.36 377.907ZM740.484 386.08C739.345 391.237 737.65 398.98 736.719 403.286C733.221 419.472 738.386 426.711 753.435 426.711C764.494 426.711 773.479 420.431 774.295 412.131C775.354 401.352 770.588 396.153 759.648 396.153H752.391L754.252 387.469C755.275 382.694 756.135 378.317 756.161 377.743C756.188 377.169 753.138 376.701 749.383 376.701H742.557L740.484 386.08ZM783.49 400.034C780.696 412.866 778.411 423.808 778.411 424.349C778.411 424.889 781.532 425.331 785.348 425.331C789.164 425.331 792.286 425.055 792.286 424.717C792.286 424.378 794.471 414.025 797.142 401.711C799.813 389.396 801.999 378.731 801.999 378.01C801.999 377.29 798.977 376.701 795.284 376.701H788.57L783.49 400.034ZM812.633 386.08C806.537 413.62 806.466 417.656 811.975 423.528C817.18 429.076 829.333 426.889 834.521 419.472C836.07 417.258 836.687 416.989 836.687 418.527C836.687 427.906 856.293 429.162 861.552 420.121C862.76 418.042 862.972 418.244 863.008 421.51C863.046 424.992 863.512 425.331 868.253 425.331L873.457 425.33L878.205 402.753C880.816 390.334 883.223 379.394 883.556 378.438C883.988 377.197 882.145 376.701 877.1 376.701C870.917 376.701 869.95 377.09 869.319 379.827C868.348 384.082 867.383 388.338 866.426 392.596C863.468 405.736 861.163 410.789 856.839 413.628C848.48 419.112 848.023 406.208 855.617 379.132C856.203 377.048 855.301 376.701 849.294 376.701C842.78 376.701 842.232 376.968 841.456 380.522C835.041 409.931 829.522 420.142 823.371 413.981C821.131 411.738 822.159 404.017 827.918 379.827C828.616 376.901 828.216 376.701 821.686 376.701H814.708L812.633 386.08ZM942.331 398.173C939.811 409.982 937.416 420.924 937.008 422.488C936.333 425.075 936.896 425.331 943.272 425.331C951.045 425.331 950.58 425.931 953.243 412.479L954.824 404.49H969.64L967.733 412.479C964.697 425.2 964.745 425.331 972.411 425.331H979.095L983.639 404.142C986.137 392.489 988.505 381.547 988.899 379.827C989.57 376.904 989.163 376.701 982.625 376.701H975.632L973.712 385.385L971.792 394.069L964.597 394.488C960.64 394.72 957.412 394.408 957.425 393.794C957.436 393.181 958.29 389.085 959.323 384.69L961.2 376.701H946.91L942.331 398.173ZM999.95 386.08C993.854 413.62 993.784 417.656 999.292 423.528C1003.86 428.393 1012.78 427.963 1018.9 422.583L1023.61 418.445L1022.95 421.888C1022.34 425.102 1022.67 425.331 1028 425.331C1031.15 425.331 1033.72 425.063 1033.72 424.735C1033.72 424.407 1035.9 414.134 1038.57 401.904C1044.56 374.482 1044.72 376.701 1036.77 376.701H1030.11L1027.03 390.248C1023.38 406.262 1020.55 412.564 1016.08 414.602C1007.82 418.373 1007.65 411.676 1015.23 379.827C1015.93 376.901 1015.53 376.701 1009 376.701H1002.03L999.95 386.08ZM1063.55 378.65C1056.74 381.66 1053.84 385.945 1053.84 392.986C1053.84 397.623 1054.56 399.803 1056.61 401.365C1059.32 403.429 1059.26 403.618 1053.6 409.733C1049.74 413.909 1047.09 415.709 1045.62 415.147C1043.82 414.455 1043.43 415.42 1043.43 420.511V426.72H1049.07C1056.82 426.72 1059.45 424.982 1065.1 416.132C1073.07 403.663 1076.48 403.946 1073.51 416.829L1071.55 425.331H1085.76L1090.48 402.753C1093.07 390.335 1095.47 379.394 1095.82 378.438C1096.72 375.967 1069.21 376.148 1063.55 378.65ZM1128.26 398.173C1125.74 409.982 1123.35 420.924 1122.94 422.488C1122.26 425.078 1122.83 425.331 1129.27 425.331C1135.47 425.331 1136.43 424.945 1137.05 422.205C1137.89 418.452 1138.7 414.695 1139.51 410.935L1141.25 402.792L1146.73 414.061L1152.21 425.331H1159.57C1168.35 425.331 1168.2 426.433 1161.3 412.679C1156.56 403.236 1155.95 401.116 1157.44 399.162C1158.41 397.89 1163.18 392.315 1168.04 386.774L1176.88 376.701H1160.37L1151.66 387.122C1146.86 392.853 1142.8 397.542 1142.63 397.542C1142.45 397.542 1143.15 393.948 1144.19 389.553C1147.16 376.888 1147.09 376.701 1139.47 376.701H1132.84L1128.26 398.173ZM1342.67 386.08C1336.58 413.62 1336.5 417.656 1342.01 423.528C1346.58 428.393 1355.5 427.963 1361.62 422.583L1366.33 418.445L1365.67 421.888C1365.06 425.102 1365.39 425.331 1370.73 425.331C1373.87 425.331 1376.44 425.063 1376.44 424.735C1376.44 424.407 1378.62 414.134 1381.29 401.904C1387.28 374.482 1387.44 376.701 1379.49 376.701H1372.83L1369.75 390.248C1366.1 406.262 1363.27 412.564 1358.8 414.602C1350.54 418.373 1350.37 411.676 1357.96 379.827C1358.65 376.901 1358.25 376.701 1351.72 376.701H1344.75L1342.67 386.08ZM1466.16 386.08C1460.07 413.62 1459.99 417.656 1465.5 423.528C1470.07 428.393 1478.99 427.963 1485.11 422.583L1489.82 418.445L1489.16 421.888C1488.55 425.102 1488.88 425.331 1494.22 425.331C1497.36 425.331 1499.93 425.063 1499.93 424.735C1499.93 424.407 1502.11 414.134 1504.78 401.904C1510.77 374.482 1510.93 376.701 1502.98 376.701H1496.32L1493.24 390.248C1489.59 406.262 1486.76 412.564 1482.29 414.602C1474.03 418.373 1473.86 411.676 1481.45 379.827C1482.14 376.901 1481.74 376.701 1475.21 376.701H1468.24L1466.16 386.08ZM1518.16 398.173C1515.64 409.982 1513.24 420.924 1512.84 422.488C1512.16 425.078 1512.72 425.331 1519.16 425.331C1525.36 425.331 1526.33 424.945 1526.95 422.205C1527.78 418.452 1528.6 414.695 1529.4 410.935L1531.15 402.792L1536.63 414.061L1542.11 425.331H1549.46C1558.25 425.331 1558.1 426.433 1551.19 412.679C1546.45 403.236 1545.85 401.116 1547.33 399.162C1548.31 397.89 1553.08 392.315 1557.94 386.774L1566.78 376.701H1550.27L1541.55 387.122C1536.76 392.853 1532.7 397.542 1532.52 397.542C1532.35 397.542 1533.05 393.948 1534.08 389.553C1537.06 376.888 1536.99 376.701 1529.37 376.701H1522.74L1518.16 398.173ZM1627.11 386.08C1621.02 413.62 1620.95 417.656 1626.46 423.528C1630.8 428.156 1639.79 427.943 1645.57 423.075C1647.95 421.068 1650.04 419.662 1650.2 419.948C1650.37 420.235 1651.6 421.784 1652.95 423.391C1655.2 426.081 1655.24 426.994 1653.4 434.854L1651.41 443.394H1664.66L1667.02 431.236C1668.31 424.55 1669.67 418.037 1670.04 416.762C1670.55 414.999 1670.04 414.621 1667.89 415.183C1663.45 416.347 1663.32 413.235 1667.09 395.769C1671.51 375.284 1671.75 376.701 1663.94 376.701H1657.28L1654.19 390.248C1650.55 406.262 1647.71 412.564 1643.25 414.602C1634.98 418.373 1634.82 411.676 1642.4 379.827C1643.1 376.901 1642.7 376.701 1636.17 376.701H1629.19L1627.11 386.08ZM1682.62 386.08C1676.52 413.62 1676.45 417.656 1681.96 423.528C1686.52 428.393 1695.45 427.963 1701.57 422.583L1706.27 418.445L1705.62 421.888C1705 425.102 1705.34 425.331 1710.67 425.331C1713.81 425.331 1716.38 425.063 1716.38 424.735C1716.38 424.407 1718.57 414.134 1721.24 401.904C1727.23 374.482 1727.39 376.701 1719.44 376.701H1712.78L1709.69 390.248C1706.05 406.262 1703.22 412.564 1698.75 414.602C1690.48 418.373 1690.32 411.676 1697.9 379.827C1698.6 376.901 1698.2 376.701 1691.67 376.701H1684.69L1682.62 386.08ZM1736.73 386.08C1730.63 413.62 1730.56 417.656 1736.07 423.528C1740.64 428.393 1749.56 427.963 1755.68 422.583L1760.39 418.445L1759.73 421.888C1759.12 425.102 1759.45 425.331 1764.78 425.331C1767.93 425.331 1770.5 425.063 1770.5 424.735C1770.5 424.407 1772.68 414.134 1775.35 401.904C1781.34 374.482 1781.5 376.701 1773.55 376.701H1766.89L1763.81 390.248C1760.16 406.262 1757.33 412.564 1752.86 414.602C1744.6 418.373 1744.43 411.676 1752.02 379.827C1752.71 376.901 1752.31 376.701 1745.78 376.701H1738.81L1736.73 386.08ZM704.524 386.51C703.188 387.305 701.143 389.799 699.979 392.054L697.863 396.153H703.295C710.377 396.153 715.977 391.921 713.749 388.251C711.934 385.261 707.902 384.501 704.524 386.51ZM911.267 386.51C908.558 388.121 904.064 396.003 905.203 397.144C906.523 398.465 915.639 396.092 917.887 393.841C922.864 388.857 917.433 382.841 911.267 386.51ZM1198.49 386.51C1197.15 387.305 1195.11 389.799 1193.94 392.054L1191.82 396.153H1197.26C1204.34 396.153 1209.94 391.921 1207.71 388.251C1205.9 385.261 1201.86 384.501 1198.49 386.51ZM650.426 388.35C643.895 393.316 641.349 411.403 646.77 414.31C653.574 417.956 660.47 409.026 660.47 396.568C660.47 387.143 656.398 383.809 650.426 388.35ZM1070.83 387.928C1067.75 389.724 1067.59 396.931 1070.6 398.088C1076.69 400.428 1079.51 397.342 1079.51 388.337C1079.51 386.11 1074.37 385.867 1070.83 387.928ZM1251.08 388.001C1244.8 391.655 1240.72 410.393 1245.36 414.25C1253.06 420.654 1264.98 395.9 1257.71 388.61C1255.16 386.063 1254.51 386.003 1251.08 388.001ZM1415.64 387.937C1407.77 390.904 1404.02 407.098 1409.85 412.941C1413.54 416.63 1413.25 417.094 1416.65 401.811C1419.95 386.987 1419.9 386.334 1415.64 387.937ZM1589.64 388.001C1583.36 391.655 1579.27 410.393 1583.92 414.25C1591.62 420.654 1603.54 395.9 1596.26 388.61C1593.72 386.063 1593.07 386.003 1589.64 388.001ZM1432.67 389.553C1430.81 395.26 1427.6 413.115 1428.32 413.829C1431.62 417.136 1440.26 405.049 1440.26 397.128C1440.26 391.312 1434.1 385.167 1432.67 389.553ZM696.546 409.254C696.546 413.037 699.835 416.994 702.98 416.994C709.918 416.994 713.531 408.427 707.299 406.754C700.18 404.844 696.546 405.689 696.546 409.254ZM750.937 407.546C748.644 409.843 748.852 413.526 751.395 415.64C754.591 418.295 760.373 415.256 760.373 410.92C760.373 406.244 754.378 404.101 750.937 407.546ZM1190.51 409.254C1190.51 413.037 1193.8 416.994 1196.94 416.994C1203.88 416.994 1207.49 408.427 1201.26 406.754C1194.14 404.844 1190.51 405.689 1190.51 409.254Z" fill="#FBFBFB" stroke="#FBFBFB"/>
<path fill-rule="evenodd" clip-rule="evenodd" d="M591.094 80.6269V169.676H638.271V111.728L654.574 110.939C698.022 108.837 718.679 89.0204 718.731 49.3952C718.77 19.9948 706.48 3.05067 679.203 -5.10669C673.99 -6.66563 662.172 -7.33673 631.68 -7.80219L591.094 -8.42188V80.6269ZM747.886 80.7519V169.676H883.864V225.253H929.653V130.771H893.577V-8.17178H845.013V130.771H795.062V-8.17178H747.886V80.7519ZM954.628 80.7519V169.676H1001.8V30.7323H1051.76V169.676H1098.93V-8.17178H954.628V80.7519ZM1137.78 80.7519V169.676H1184.96V125.132C1184.96 100.633 1185.47 80.902 1186.09 81.2855C1186.71 81.6689 1198.73 101.714 1212.8 125.829L1238.38 169.676H1265.14C1291.53 169.676 1291.88 169.638 1290.4 166.876C1289.58 165.336 1276.76 144.717 1261.91 121.055C1232.69 74.4995 1233.73 76.6114 1237.5 71.2399C1238.93 69.2113 1251.08 50.5012 1264.51 29.6611L1288.93 -8.23152L1262.5 -7.8536L1236.08 -7.47706L1212.1 33.2458C1198.91 55.6435 1187.41 74.6829 1186.54 75.554C1185.36 76.742 1184.96 66.4338 1184.96 34.4838V-8.17178H1137.78V80.7519ZM205.853 27.1851C176.533 39.9596 177.895 82.2664 207.957 92.5232C235.976 102.084 261.461 75.6096 251.74 47.0401C246.063 30.3572 222.235 20.0462 205.853 27.1851ZM638.271 51.5738V72.4153L646.249 72.4125C660.134 72.4098 669.011 65.2153 670.929 52.4116C672.998 38.591 664.818 30.7462 648.33 30.7379L638.271 30.7323V51.5738ZM351.606 36.0664C347.237 39.2496 342.853 46.0967 328.85 71.6081C316.537 94.0418 310.463 103.757 307.908 105.102C305.93 106.144 283.764 109.873 258.651 113.39C233.538 116.905 211.827 120.131 210.405 120.558C207.985 121.283 207.885 122.47 208.852 138.905C209.42 148.569 210.3 165.229 210.806 175.928L211.727 195.38L199.019 208.444L186.312 221.506L178.316 206.579L170.319 191.651L180.927 157.39C193.546 116.633 193.319 118.952 184.894 117.076C165.843 112.833 155.416 111.319 145.212 111.319C131.822 111.319 75.7449 119.185 70.7692 121.761C67.5862 123.409 47.2102 159.074 32.2859 189.121C23.3793 207.053 27.9596 221.085 42.7188 221.085C52.6396 221.085 57.2879 216.051 74.2172 186.964C91.8999 156.582 94.3406 153.351 100.338 152.381C111.318 150.607 147.806 149.002 149.041 150.239C150.658 151.858 149.552 158.938 140.197 206.867C136.279 226.938 133.452 243.977 133.916 244.729C135.267 246.916 230.251 246.554 231.074 244.358C232.026 241.822 244.211 161.37 244.211 157.628C244.211 152.456 249.038 150.863 276.818 146.861C316.995 141.074 327.892 139.104 331.055 137.05C332.651 136.015 338.735 125.895 344.578 114.56C351.562 101.024 358.574 87.5029 365.615 73.9965C377.712 50.8096 379.28 42.2021 372.62 35.5328C367.679 30.5837 358.82 30.8087 351.606 36.0664ZM473.699 148.255C462.803 179.359 444.478 205.452 410.046 238.886C398.303 250.29 390.539 258.829 391.417 259.373C392.247 259.886 399.978 259.865 408.598 259.326C420.353 258.591 424.532 258.77 425.32 260.047C426.54 262.023 406.802 302.2 394.128 323.539C350.374 397.209 288.916 437.912 181.078 464.641C154.272 471.285 156.606 473.065 187.883 469.835C282.863 460.02 364.996 416.079 421.789 344.693C440.5 321.174 446.964 310.401 465.953 271.104C469.761 263.223 472.552 264.584 482.875 279.35C497.176 299.808 496.899 300.637 492.586 250.342C489.394 213.116 487.092 196.392 481.289 168.286C477.061 147.807 475.396 143.411 473.699 148.255ZM17.4448 218.591C13.5459 224.165 10.6029 235.536 10.5072 245.4C10.417 254.594 10.1853 255.279 6.26687 257.948C-1.39787 263.166 -1.31184 265.573 7.50455 292.896C15.9699 319.135 16.7261 320.692 21.9654 322.685C26.4916 324.41 95.205 302.929 98.8667 298.647C102.513 294.381 101.971 290.844 93.6884 264.868C85.3008 238.562 83.436 235.66 75.1371 235.992C70.0365 236.195 69.9214 236.082 67.2434 228.294C64.3005 219.737 63.4416 219.191 58.4728 222.714C55.3051 224.96 55.2565 225.278 57.0034 232.104C58.1287 236.499 58.3188 239.627 57.5057 240.374C55.1566 242.54 23.6541 251.854 22.0473 250.859C19.8217 249.482 21.6158 236.067 24.9472 229.163C27.6349 223.591 27.6349 223.588 24.66 219.558C21.0885 214.72 20.2324 214.606 17.4448 218.591ZM1182.18 249.637C1182.18 265.798 1212.36 267.5 1221.51 251.854L1224.07 247.484H1217.92C1212.77 247.484 1211.52 248.027 1210.25 250.827C1207.36 257.174 1196.04 256.782 1193.98 250.264C1192.84 246.681 1182.18 246.114 1182.18 249.637ZM70.3265 260.578C59.0195 277.632 41.1481 282.8 22.6536 274.365C20.428 273.346 18.1973 272.338 15.9616 271.342C15.1984 271.01 16.4472 272.755 18.7366 275.22C38.1357 296.1 70.9662 286.702 75.5811 258.947C76.8452 251.344 76.3484 251.498 70.3265 260.578ZM587.676 254.605C586.972 256.56 574.444 315.035 574.444 316.37C574.444 316.776 577.38 316.917 580.97 316.684L587.495 316.261L589.699 305.908L591.903 295.555L600.864 294.041C611.34 292.272 614.513 290.726 619.259 285.078C626.581 276.365 625.008 261.819 616.189 256.672C610.112 253.128 588.767 251.58 587.676 254.605ZM113.228 312.242C102.68 340.435 93.3374 364.849 92.4688 366.497C91.5988 368.144 76.6287 384.298 59.1999 402.394C26.6262 436.217 22.2957 442.032 22.236 452.012C22.1486 466.807 33.7914 472.355 49.526 465.019C54.8458 462.539 63.7302 454.805 83.5206 435.424C98.2576 420.995 113.64 406.125 117.704 402.382C127.023 393.799 125.108 397.802 144.537 346.261C153.637 322.119 161.836 301.663 162.756 300.803C164.694 298.993 236.847 315.446 242.11 318.899C247.258 322.277 248.143 327.528 249.399 362.112C250.735 398.954 251.487 402.196 259.889 407.324C268.543 412.61 278.702 409.076 284.068 398.914C287.177 393.027 287.224 392.208 287.224 344.547V296.158L283.35 291.815C279.825 287.865 277.23 286.942 254.559 281.576L229.642 275.68L229.217 270.719C228.984 267.99 228.048 265.138 227.136 264.381C226.17 263.579 206.056 262.583 178.943 261.994L132.406 260.985L113.228 312.242ZM596.836 272.031C594.594 283.213 594.684 283.609 599.482 283.609C608.025 283.609 613.983 271.992 608.34 266.34C603.191 261.185 598.551 263.48 596.836 272.031ZM646.864 268.613C632.97 273.304 623.876 297.441 631.369 309.744C636.089 317.499 644.27 319.709 657.628 316.84C664.434 315.378 664.634 315.196 664.634 310.439C664.634 306.317 664.249 305.702 662.205 306.554C652.428 310.628 643.349 308.316 641.664 301.324C640.814 297.788 641.061 297.503 644.989 297.503C661.263 297.503 671.571 290.904 671.571 280.484C671.571 269.837 659.879 264.22 646.864 268.613ZM688.417 268.51C682.597 269.884 682.401 270.1 683.228 274.24C684.334 279.771 684.244 279.716 689.286 277.955C696.283 275.513 701.403 276.717 701.403 280.807C701.403 283.783 700.073 284.785 691.691 288.118C676.893 294.002 671.53 303.378 677.819 312.372C681.924 318.239 698.055 319.964 706.5 315.437C710.037 313.542 710.138 305.083 706.607 306.554C701.038 308.875 691.616 308.956 689.747 306.701C686.727 303.057 688.872 300.817 699.319 296.713C711.063 292.1 714.585 288.287 714.585 280.19C714.585 269.583 703.959 264.839 688.417 268.51ZM790.858 270.062C772.466 279.366 769.947 310.208 787.047 316.725C803.967 323.173 820.05 308.427 820.032 286.482C820.019 270.597 805.715 262.547 790.858 270.062ZM899.653 268.866C890.194 273.133 883.027 288.768 884.175 302.629C885.358 316.917 896.609 322.424 907.753 314.174L911.615 311.314V314.135C911.615 316.432 912.515 316.955 916.471 316.955C919.142 316.955 921.327 316.679 921.327 316.341C921.327 316.002 923.513 305.65 926.184 293.335C928.855 281.021 931.04 270.355 931.04 269.634C931.04 268.097 921.337 267.831 921.307 269.367C921.226 273.287 918.633 274.291 916.22 271.335C913.049 267.449 905.342 266.3 899.653 268.866ZM960.872 268.941C953.941 271.511 951.837 274.089 946.965 285.959C937.932 307.969 938.362 307.229 934.587 307.229C930.333 307.229 929.185 315.945 933.235 317.501C942.435 321.036 949.564 314.46 955.945 296.556C960.978 282.429 964.133 278.051 969.278 278.051C972.14 278.051 972.595 278.578 971.982 281.178C970.545 287.28 964.341 315.995 964.341 316.547C964.341 316.855 967.265 316.917 970.839 316.684L977.335 316.261L982.069 293.535C984.932 279.791 986.302 270.308 985.533 269.538C983.146 267.148 966.773 266.751 960.872 268.941ZM1323.98 268.613C1310.09 273.304 1300.99 297.441 1308.49 309.744C1313.21 317.499 1321.39 319.709 1334.74 316.84C1341.55 315.378 1341.75 315.196 1341.75 310.439C1341.75 306.317 1341.37 305.702 1339.32 306.554C1329.54 310.628 1320.47 308.316 1318.78 301.324C1317.93 297.788 1318.18 297.503 1322.11 297.503C1338.38 297.503 1348.69 290.904 1348.69 280.484C1348.69 269.837 1337 264.22 1323.98 268.613ZM1440.27 267.911C1439.12 268.327 1436.09 270.622 1433.52 273.012L1428.87 277.357L1429.82 272.841C1430.75 268.423 1430.67 268.325 1425.9 268.325C1420.2 268.325 1421.01 266.438 1415.28 293.335C1412.92 304.416 1410.73 314.264 1410.41 315.219C1410 316.448 1411.78 316.955 1416.53 316.955H1423.23L1425.62 304.798C1429.56 284.757 1435.22 275.814 1442.26 278.52C1445.2 279.649 1444.97 284.283 1441.1 302.019L1437.84 316.955H1450.86L1452.7 307.577C1455.47 293.445 1457.99 285.777 1461.18 281.717C1464.45 277.548 1470.39 276.786 1471.76 280.358C1472.52 282.328 1467.67 309.832 1465.63 315.152C1465.13 316.479 1466.74 316.955 1471.71 316.955H1478.48L1481.61 301.324C1486.6 276.344 1485.39 269.369 1475.74 267.557C1470.19 266.513 1461.76 270.008 1459.46 274.31C1457.99 277.073 1457.89 277.047 1455.96 273.369C1453.21 268.113 1446.31 265.715 1440.27 267.911ZM1518.66 268.488C1517.13 269.372 1514.43 271.415 1512.65 273.031L1509.42 275.967L1510.37 272.146C1511.28 268.517 1511.08 268.325 1506.42 268.325C1500.54 268.325 1501.71 265.138 1493.73 303.061C1490.27 319.491 1487.1 334.376 1486.7 336.138C1486 339.179 1486.3 339.321 1492.57 338.917L1499.17 338.492L1501.82 324.886C1504.44 311.431 1504.5 311.313 1507.1 314.102C1520.53 328.542 1543.65 301.326 1537.47 278.347C1535.06 269.366 1525.66 264.438 1518.66 268.488ZM725.878 283.262C722.381 300.845 722.126 309.658 724.993 313.757C729.416 320.082 742.404 318.883 747.793 311.653L750.573 307.924L750.616 312.44C750.658 316.605 751.012 316.955 755.204 316.955H759.745L764.316 295.072C766.83 283.035 769.209 272.057 769.605 270.676C770.239 268.464 769.534 268.214 763.716 268.592L757.107 269.02L754.141 282.22C749.88 301.18 745.839 307.919 739.29 306.989C734.78 306.348 734.664 302.269 738.625 283.894L741.98 268.325H728.849L725.878 283.262ZM836.145 270.757C835.744 272.093 833.487 282.254 831.127 293.335C828.768 304.416 826.576 314.264 826.256 315.219C825.844 316.45 827.634 316.955 832.4 316.955H839.124L841.054 306.882L842.983 296.809L850.935 296.392C855.31 296.163 858.879 296.475 858.866 297.087C858.855 297.698 857.941 301.95 856.835 306.535C855.729 311.12 854.802 315.374 854.776 315.99C854.748 316.604 857.667 316.917 861.261 316.684C867.497 316.28 867.844 316.038 868.815 311.398C869.374 308.723 871.669 297.938 873.914 287.43L877.995 268.325H864.948L863.155 277.357L861.362 286.388H845.378L847.255 278.399C848.288 274.004 849.142 269.941 849.153 269.367C849.203 266.978 836.885 268.293 836.145 270.757ZM997.31 286.399C995.118 297.452 994.111 305.916 994.718 308.19C998.25 321.416 1026.68 321.108 1033 307.775C1038.58 296.001 1029.88 286.25 1015.52 288.179C1009.37 289.004 1009.46 289.286 1012.09 277.009L1013.95 268.325H1000.89L997.31 286.399ZM1052.6 270.757C1052.2 272.093 1049.94 282.254 1047.58 293.335C1045.22 304.416 1043.03 314.264 1042.71 315.219C1042.3 316.45 1044.09 316.955 1048.86 316.955H1055.58L1057.51 306.882L1059.44 296.809L1067.39 296.392C1071.77 296.163 1075.33 296.475 1075.32 297.087C1075.31 297.698 1074.4 301.95 1073.29 306.535C1072.18 311.12 1071.26 315.374 1071.23 315.99C1071.2 316.604 1074.12 316.917 1077.72 316.684C1083.95 316.28 1084.3 316.038 1085.27 311.398C1085.83 308.723 1088.12 297.938 1090.37 287.43L1094.45 268.325H1081.4L1079.61 277.357L1077.82 286.388H1061.83L1063.71 278.399C1064.74 274.004 1065.6 269.941 1065.61 269.367C1065.66 266.978 1053.34 268.293 1052.6 270.757ZM1104.81 282.611C1099.07 309.034 1101 315.959 1114.62 317.829C1132.41 320.271 1145.89 304.091 1135.82 292.371C1132.9 288.964 1131.49 288.472 1124.72 288.472C1120.45 288.472 1116.99 287.85 1117.02 287.083C1117.04 286.318 1117.9 281.786 1118.93 277.009L1120.79 268.325H1107.91L1104.81 282.611ZM1153.72 270.062C1153.38 271.018 1151.19 280.865 1148.87 291.946C1146.54 303.026 1144.3 313.187 1143.89 314.524C1143.25 316.607 1144.11 316.955 1149.83 316.955H1156.53L1161.24 294.377C1163.83 281.96 1166.24 271.018 1166.59 270.062C1167.03 268.831 1165.34 268.325 1160.78 268.325C1156.89 268.325 1154.1 269.012 1153.72 270.062ZM1176.83 283.262C1173.33 300.845 1173.07 309.658 1175.94 313.757C1180.36 320.082 1193.35 318.883 1198.74 311.653L1201.52 307.924L1201.56 312.44C1201.61 316.605 1201.96 316.955 1206.15 316.955H1210.69L1215.26 295.072C1217.78 283.035 1220.16 272.057 1220.55 270.676C1221.19 268.464 1220.48 268.214 1214.66 268.592L1208.06 269.02L1205.09 282.22C1200.83 301.18 1196.79 307.919 1190.24 306.989C1185.73 306.348 1185.61 302.269 1189.57 283.894L1192.93 268.325H1179.8L1176.83 283.262ZM1254.53 283.262C1249.65 307.77 1250.88 315.67 1259.88 317.65C1264.92 318.758 1272.55 316.43 1275.85 312.775C1278.24 310.132 1278.33 310.144 1281.05 313.607C1283.83 317.149 1283.85 318.516 1281.31 330.502C1280.35 335.012 1280.36 335.018 1285.98 335.018C1292.32 335.018 1291.99 335.553 1295.23 319.991C1297.9 307.184 1297.9 307.229 1294.57 307.229C1290.6 307.229 1291.08 302.322 1298.1 271.374C1298.79 268.336 1298.49 268.192 1292.29 268.595L1285.76 269.02L1282.79 282.22C1278.53 301.18 1274.49 307.919 1267.94 306.989C1263.43 306.348 1263.31 302.269 1267.28 283.894L1270.63 268.325H1257.5L1254.53 283.262ZM1364.8 270.757C1364.39 272.093 1362.14 282.254 1359.78 293.335C1357.42 304.416 1355.23 314.264 1354.91 315.219C1354.49 316.45 1356.28 316.955 1361.05 316.955H1367.77L1369.7 306.882L1371.63 296.809L1379.59 296.392C1383.96 296.163 1387.53 296.475 1387.52 297.087C1387.51 297.698 1386.59 301.95 1385.49 306.535C1384.38 311.12 1383.45 315.374 1383.43 315.99C1383.4 316.604 1386.32 316.917 1389.91 316.684C1396.15 316.28 1396.49 316.038 1397.47 311.398C1398.02 308.723 1400.32 297.938 1402.56 287.43L1406.65 268.325H1393.6L1391.81 277.357L1390.01 286.388H1374.03L1375.91 278.399C1376.94 274.004 1377.79 269.941 1377.8 269.367C1377.85 266.978 1365.54 268.293 1364.8 270.757ZM647.413 280.937C642.57 286.699 642.769 289.167 648.075 289.167C655.995 289.167 662.522 282.895 659.01 278.657C656.272 275.354 651.279 276.337 647.413 280.937ZM1324.53 280.937C1319.69 286.699 1319.89 289.167 1325.19 289.167C1333.11 289.167 1339.64 282.895 1336.13 278.657C1333.39 275.354 1328.4 276.337 1324.53 280.937ZM793.856 281.61C786.377 291.13 787.439 307.229 795.546 307.229C803.413 307.229 810.588 289.156 805.692 281.672C802.613 276.966 797.525 276.94 793.856 281.61ZM904.986 278.959C902.596 279.955 898.323 288.704 897.202 294.901C894.054 312.294 909.317 310.72 913.86 293.184C916.624 282.513 912.463 275.841 904.986 278.959ZM1513.06 281.714C1505.06 290.358 1504.97 307.229 1512.92 307.229C1519.28 307.229 1524.9 297.42 1524.9 286.328C1524.9 277.604 1518.99 275.302 1513.06 281.714ZM1007.9 299.486C1005.95 304.56 1007.93 307.914 1013.12 308.348C1019.23 308.858 1023.47 304.47 1021.11 300.067C1019.4 296.86 1009.08 296.407 1007.9 299.486ZM1115.12 298.43C1113.34 300.209 1114.19 307.316 1116.28 308.117C1122.3 310.431 1128.97 304.027 1125.24 299.521C1123.54 297.469 1116.8 296.743 1115.12 298.43ZM1425.02 365.238C1424.16 369.633 1423.22 373.935 1422.95 374.8C1422.67 375.664 1419.18 377.157 1415.19 378.114C1401.44 381.418 1391.91 394.468 1393.43 407.927C1394.55 417.867 1398.73 422.409 1409.93 425.82C1411.98 426.445 1412.01 427.294 1410.3 434.606C1407.29 447.397 1407.41 447.79 1414.23 447.294L1420.1 446.867L1421.99 436.984L1423.88 427.103L1431.79 424.899C1445.69 421.029 1453.08 411.834 1453.21 398.254C1453.3 388.415 1449.9 382.673 1441.9 379.178C1438.33 377.618 1435.28 376.24 1435.12 376.116C1434.96 375.992 1435.72 372.166 1436.8 367.611C1437.89 363.058 1438.8 358.865 1438.83 358.291C1438.86 357.717 1436.11 357.249 1432.73 357.249H1426.59L1425.02 365.238ZM603.582 376.223C602.437 376.673 599.404 378.998 596.842 381.388L592.182 385.732L593.137 381.217C594.069 376.798 593.985 376.701 589.217 376.701C583.521 376.701 584.323 374.814 578.595 401.711C576.237 412.792 574.044 422.64 573.725 423.594C573.313 424.824 575.099 425.331 579.848 425.331H586.552L588.94 413.174C591.942 397.877 595.476 389.68 599.944 387.641C608.307 383.825 609.508 389 605 409.424C601.326 426.065 601.168 425.331 608.439 425.331C611.873 425.331 614.682 425.024 614.682 424.649C614.682 424.274 616.303 416.408 618.285 407.17C622.125 389.264 621.971 382.876 617.602 378.917C614.827 376.402 606.965 374.891 603.582 376.223ZM645.167 378.438C626.775 387.741 624.256 418.584 641.356 425.101C658.276 431.549 674.359 416.803 674.341 394.858C674.328 378.973 660.024 370.922 645.167 378.438ZM701.807 376.684C681.732 382.745 675.3 416.057 692.679 423.956C706.469 430.223 724.298 423.932 724.298 412.799C724.298 407.257 722.078 403.122 719.046 403.018C716.938 402.946 716.97 402.747 719.319 401.281C727.267 396.324 729.629 387.919 724.951 381.232C721.495 376.293 710.357 374.104 701.807 376.684ZM907.72 376.989C893.827 381.679 884.733 405.817 892.225 418.12C896.946 425.874 905.127 428.085 918.484 425.216C925.29 423.754 925.49 423.572 925.49 418.815C925.49 414.692 925.106 414.078 923.062 414.93C913.284 419.004 904.205 416.692 902.521 409.7C901.67 406.164 901.917 405.879 905.845 405.879C922.12 405.879 932.428 399.279 932.428 388.86C932.428 378.213 920.735 372.595 907.72 376.989ZM1195.77 376.684C1175.69 382.745 1169.26 416.057 1186.64 423.956C1200.43 430.223 1218.26 423.932 1218.26 412.799C1218.26 407.257 1216.04 403.122 1213.01 403.018C1210.9 402.946 1210.93 402.747 1213.28 401.281C1221.23 396.324 1223.59 387.919 1218.91 381.232C1215.46 376.293 1204.32 374.104 1195.77 376.684ZM1245.15 377.242C1235.69 381.508 1228.52 397.144 1229.67 411.005C1230.85 425.292 1242.1 430.8 1253.25 422.55L1257.11 419.69V422.511C1257.11 424.807 1258.01 425.331 1261.97 425.331C1264.64 425.331 1266.82 425.055 1266.82 424.717C1266.82 424.378 1269.01 414.025 1271.68 401.711C1274.35 389.396 1276.54 378.731 1276.54 378.01C1276.54 376.473 1266.83 376.206 1266.8 377.743C1266.72 381.663 1264.13 382.667 1261.72 379.711C1258.55 375.824 1250.84 374.675 1245.15 377.242ZM1304.98 377.317C1298.05 379.887 1295.94 382.464 1291.07 394.334C1282.04 416.344 1282.47 415.605 1278.7 415.605C1274.44 415.605 1273.29 424.321 1277.34 425.877C1286.54 429.412 1293.67 422.836 1300.05 404.932C1305.09 390.805 1308.24 386.427 1313.39 386.427C1316.25 386.427 1316.7 386.954 1316.09 389.553C1314.65 395.656 1308.45 424.371 1308.45 424.923C1308.45 425.231 1311.37 425.292 1314.95 425.06L1321.44 424.636L1326.18 401.911C1329.04 388.167 1330.41 378.684 1329.64 377.914C1327.25 375.524 1310.88 375.127 1304.98 377.317ZM1583.71 377.242C1574.25 381.508 1567.08 397.144 1568.23 411.005C1569.41 425.292 1580.66 430.8 1591.81 422.55L1595.67 419.69V422.511C1595.67 424.807 1596.57 425.331 1600.53 425.331C1603.2 425.331 1605.38 425.055 1605.38 424.717C1605.38 424.378 1607.57 414.025 1610.24 401.711C1612.91 389.396 1615.09 378.731 1615.09 378.01C1615.09 376.473 1605.39 376.206 1605.36 377.743C1605.28 381.663 1602.69 382.667 1600.27 379.711C1597.1 375.824 1589.4 374.675 1583.71 377.242ZM739.887 390.987C734.152 417.41 736.081 424.335 749.698 426.205C767.493 428.646 780.967 412.466 770.901 400.747C767.974 397.34 766.573 396.848 759.8 396.848C755.524 396.848 752.07 396.225 752.097 395.458C752.123 394.694 752.984 390.162 754.006 385.385L755.867 376.701H742.986L739.887 390.987ZM788.8 378.438C788.457 379.394 786.273 389.241 783.946 400.321C781.621 411.402 779.381 421.563 778.971 422.9C778.331 424.982 779.184 425.331 784.913 425.331H791.604L796.319 402.753C798.912 390.336 801.318 379.394 801.665 378.438C802.112 377.207 800.42 376.701 795.861 376.701C791.97 376.701 789.177 377.387 788.8 378.438ZM811.981 391.637C806.477 418.456 808.36 426.026 820.531 426.026C825.732 426.026 827.616 425.253 831.415 421.567L836.009 417.109L838.317 421.135C842.622 428.646 851.904 428.182 860.644 420.018L864.482 416.433L863.592 420.882C862.726 425.221 862.826 425.331 867.641 425.331C873.373 425.331 872.493 427.386 878.225 400.603C883.646 375.271 883.752 376.701 876.462 376.701H870.448L867.402 390.248C863.832 406.126 860.985 412.562 856.655 414.538C848.436 418.288 847.527 413.122 852.5 390.943L855.693 376.701H842.618L840.23 388.859C836.391 408.415 831.951 416.305 825.317 415.365C820.808 414.724 820.691 410.645 824.652 392.27L828.007 376.701H815.047L811.981 391.637ZM947.148 379.133C946.747 380.469 944.49 390.63 942.129 401.711C939.771 412.792 937.578 422.64 937.259 423.594C936.847 424.825 938.637 425.331 943.403 425.331H950.127L952.057 415.258L953.986 405.184L961.938 404.768C966.313 404.538 969.881 404.851 969.869 405.462C969.858 406.074 968.943 410.325 967.838 414.91C966.732 419.496 965.805 423.75 965.778 424.366C965.751 424.98 968.67 425.292 972.264 425.06C978.499 424.656 978.846 424.414 979.818 419.773C980.377 417.099 982.672 406.314 984.917 395.806L988.998 376.701H975.95L974.158 385.732L972.365 394.764H956.381L958.258 386.774C959.29 382.38 960.145 378.317 960.156 377.743C960.206 375.353 947.888 376.669 947.148 379.133ZM999.222 391.637C995.726 409.221 995.47 418.034 998.337 422.133C1002.76 428.457 1015.75 427.258 1021.14 420.029L1023.92 416.3L1023.96 420.816C1024 424.981 1024.36 425.331 1028.55 425.331H1033.09L1037.66 403.448C1040.17 391.411 1042.55 380.433 1042.95 379.052C1043.58 376.84 1042.88 376.59 1037.06 376.968L1030.45 377.396L1027.48 390.595C1023.22 409.556 1019.18 416.294 1012.63 415.365C1008.12 414.724 1008.01 410.645 1011.97 392.27L1015.32 376.701H1002.19L999.222 391.637ZM1064.99 378.784C1054.78 382.424 1050.89 394.179 1057.55 401.275C1059.21 403.042 1059.84 404.49 1058.95 404.49C1058.07 404.49 1055.76 406.991 1053.84 410.047C1051.61 413.579 1049.3 415.605 1047.49 415.605C1042.99 415.605 1044.19 425.838 1048.77 426.487C1054.85 427.35 1059.98 423.903 1064.72 415.764C1068.13 409.913 1070.15 407.858 1072.83 407.539L1076.4 407.116L1074.51 415.181C1073.46 419.618 1072.6 423.715 1072.59 424.289C1072.58 424.863 1075.37 425.331 1078.79 425.331C1084.09 425.331 1085.11 424.87 1085.75 422.205C1087.96 413.004 1094.77 379.961 1094.77 378.456C1094.77 375.979 1072.16 376.226 1064.99 378.784ZM1133.08 379.133C1132.68 380.469 1130.42 390.63 1128.06 401.711C1125.7 412.792 1123.51 422.64 1123.19 423.594C1122.78 424.824 1124.56 425.331 1129.28 425.331H1135.96L1138.48 413.303L1141 401.273L1147.04 413.303L1153.08 425.331H1166.95L1161.39 414.246C1154.43 400.387 1154.3 401.605 1163.81 390.715C1177.02 375.587 1176.64 376.701 1168.56 376.701H1161.52L1151.73 387.825C1146.35 393.944 1141.97 398.476 1141.99 397.898C1142.02 397.32 1142.94 392.784 1144.03 387.816C1145.12 382.849 1146.03 378.317 1146.06 377.743C1146.17 375.349 1133.82 376.67 1133.08 379.133ZM1341.94 391.637C1338.45 409.221 1338.19 418.034 1341.06 422.133C1345.48 428.457 1358.47 427.258 1363.86 420.029L1366.64 416.3L1366.68 420.816C1366.72 424.981 1367.08 425.331 1371.27 425.331H1375.81L1380.38 403.448C1382.89 391.411 1385.27 380.433 1385.67 379.052C1386.3 376.84 1385.6 376.59 1379.78 376.968L1373.17 377.396L1370.21 390.595C1365.94 409.556 1361.9 416.294 1355.35 415.365C1350.85 414.724 1350.73 410.645 1354.69 392.27L1358.05 376.701H1344.91L1341.94 391.637ZM1465.43 391.637C1461.94 409.221 1461.68 418.034 1464.55 422.133C1468.97 428.457 1481.96 427.258 1487.35 420.029L1490.13 416.3L1490.17 420.816C1490.21 424.981 1490.57 425.331 1494.76 425.331H1499.3L1503.87 403.448C1506.39 391.411 1508.76 380.433 1509.16 379.052C1509.79 376.84 1509.09 376.59 1503.27 376.968L1496.66 377.396L1493.7 390.595C1489.44 409.556 1485.39 416.294 1478.85 415.365C1474.34 414.724 1474.22 410.645 1478.18 392.27L1481.54 376.701H1468.4L1465.43 391.637ZM1522.97 379.133C1522.57 380.469 1520.32 390.63 1517.96 401.711C1515.6 412.792 1513.4 422.64 1513.09 423.594C1512.67 424.824 1514.46 425.331 1519.18 425.331H1525.86L1528.38 413.303L1530.9 401.273L1536.94 413.303L1542.97 425.331H1556.85L1551.28 414.246C1544.32 400.387 1544.2 401.605 1553.71 390.715C1566.92 375.587 1566.54 376.701 1558.45 376.701H1551.42L1541.63 387.825C1536.25 393.944 1531.86 398.476 1531.89 397.898C1531.92 397.32 1532.83 392.784 1533.92 387.816C1535.01 382.849 1535.93 378.317 1535.96 377.743C1536.07 375.349 1523.71 376.67 1522.97 379.133ZM1626.39 391.637C1621.51 416.146 1622.74 424.046 1631.74 426.026C1636.78 427.133 1644.41 424.806 1647.71 421.15C1650.1 418.508 1650.19 418.52 1652.9 421.983C1655.69 425.524 1655.71 426.892 1653.17 438.878C1652.21 443.388 1652.22 443.394 1657.84 443.394C1664.18 443.394 1663.85 443.929 1667.09 428.367C1669.76 415.559 1669.76 415.605 1666.43 415.605C1662.46 415.605 1662.94 410.698 1669.96 379.749C1670.65 376.712 1670.35 376.568 1664.15 376.971L1657.62 377.396L1654.65 390.595C1650.39 409.556 1646.35 416.294 1639.8 415.365C1635.29 414.724 1635.17 410.645 1639.13 392.27L1642.49 376.701H1629.36L1626.39 391.637ZM1681.89 391.637C1678.39 409.221 1678.14 418.034 1681 422.133C1685.43 428.457 1698.41 427.258 1703.8 420.029L1706.58 416.3L1706.63 420.816C1706.67 424.981 1707.02 425.331 1711.21 425.331H1715.76L1720.33 403.448C1722.84 391.411 1725.22 380.433 1725.62 379.052C1726.25 376.84 1725.54 376.59 1719.73 376.968L1713.12 377.396L1710.15 390.595C1705.89 409.556 1701.85 416.294 1695.3 415.365C1690.79 414.724 1690.67 410.645 1694.64 392.27L1697.99 376.701H1684.86L1681.89 391.637ZM1736 391.637C1732.51 409.221 1732.25 418.034 1735.12 422.133C1739.54 428.457 1752.53 427.258 1757.92 420.029L1760.7 416.3L1760.74 420.816C1760.78 424.981 1761.14 425.331 1765.33 425.331H1769.87L1774.44 403.448C1776.95 391.411 1779.33 380.433 1779.73 379.052C1780.36 376.84 1779.66 376.59 1773.84 376.968L1767.23 377.396L1764.27 390.595C1760 409.556 1755.96 416.294 1749.41 415.365C1744.91 414.724 1744.79 410.645 1748.75 392.27L1752.11 376.701H1738.97L1736 391.637ZM701.589 389.238C696.533 395.256 696.937 396.153 704.703 396.153C712.216 396.153 715.065 394.02 714.345 388.935C713.59 383.604 706.175 383.78 701.589 389.238ZM908.269 389.313C903.427 395.075 903.625 397.543 908.931 397.543C916.851 397.543 923.378 391.271 919.866 387.033C917.129 383.73 912.135 384.712 908.269 389.313ZM1195.55 389.238C1190.5 395.256 1190.9 396.153 1198.66 396.153C1206.18 396.153 1209.03 394.02 1208.31 388.935C1207.55 383.604 1200.14 383.78 1195.55 389.238ZM648.165 389.985C640.686 399.506 641.748 415.605 649.855 415.605C657.722 415.605 664.897 397.531 660.001 390.048C656.922 385.342 651.834 385.316 648.165 389.985ZM1069.2 388.61C1064.7 393.116 1067.48 398.932 1074.14 398.932C1077.96 398.932 1078.27 398.489 1080.1 390.248C1080.9 386.654 1080.66 386.427 1076.16 386.427C1073.53 386.427 1070.4 387.409 1069.2 388.61ZM1250.48 387.334C1248.09 388.331 1243.82 397.08 1242.7 403.277C1239.55 420.67 1254.81 419.095 1259.36 401.559C1262.12 390.889 1257.96 384.216 1250.48 387.334ZM1414.48 388.018C1407.27 391.523 1403.87 407.105 1409.07 412.855C1413.1 417.311 1414.23 415.655 1417.44 400.581C1420.55 386.007 1420.36 385.165 1414.48 388.018ZM1429.56 400.667C1426.28 416.522 1426.37 417.093 1431.67 414.15C1439.55 409.776 1443.05 394.772 1437.49 389.206C1433.15 384.864 1432.69 385.529 1429.56 400.667ZM1589.04 387.334C1586.65 388.331 1582.38 397.08 1581.26 403.277C1578.11 420.67 1593.37 419.095 1597.91 401.559C1600.68 390.889 1596.52 384.216 1589.04 387.334ZM695.159 408.348C695.159 412.491 699.224 416.995 702.96 416.995C710.339 416.995 714.334 411.741 710.145 407.546C707.332 404.73 695.159 405.382 695.159 408.348ZM750.199 406.806C748.421 408.584 749.272 415.691 751.357 416.493C757.376 418.806 764.052 412.402 760.318 407.897C758.618 405.844 751.883 405.119 750.199 406.806ZM1189.12 408.348C1189.12 412.491 1193.19 416.995 1196.92 416.995C1204.3 416.995 1208.3 411.741 1204.11 407.546C1201.29 404.73 1189.12 405.382 1189.12 408.348Z" fill="white" stroke="white"/>
</g>
<defs>
<clipPath id="clip0_4069_3070">
<rect width="512" height="512" fill="white"/>
</clipPath>
</defs>
</svg>
