<svg width="1284" height="512" viewBox="0 0 1284 512" fill="none" xmlns="http://www.w3.org/2000/svg">
<g clip-path="url(#clip0_4069_3070)">
<path fill-rule="evenodd" clip-rule="evenodd" d="M426.002 136V200H461.002V158H470.792C496.479 158 513.056 146.395 517.531 125.28C522.17 103.385 514.997 85.538 498.146 77.046C489.873 72.877 482.36 72.036 453.252 72.017L426.002 72V136ZM538.002 135.991V199.981L587.252 200.241L636.502 200.5L636.773 220.25L637.044 240H671.002V172H644.002V72H609.002V172H574.002V72H538.002V135.991ZM688.002 136V200H723.002V100H757.002V200H793.002V72H688.002V136ZM820.002 136V200H855.002V136.566L873.41 168.033L891.817 199.5L911.849 199.771L931.881 200.041L910.878 166.562L889.876 133.084L908.761 103.792C919.147 87.681 927.977 73.938 928.383 73.25C928.962 72.267 924.991 72.006 909.811 72.028L890.502 72.056L873.002 101.92L855.502 131.785L855.237 101.892L854.973 72H820.002V136ZM149.971 96.536C137.633 100.339 129.632 114.483 132.917 126.683C138.83 148.645 168.164 153.331 179.667 134.151C192.036 113.526 173.015 89.432 149.971 96.536ZM255.349 102.057C249.912 104.748 246.27 110.461 227.099 146.363C222.775 154.462 225.553 153.718 172.619 160.945C160.584 162.588 150.51 164.159 150.233 164.436C149.671 164.998 149.852 180.02 150.505 187C150.736 189.475 151.191 197.575 151.515 205L152.106 218.5L143.179 227.355L134.252 236.21L128.932 226.37C126.006 220.958 123.668 215.849 123.737 215.015C123.806 214.182 127.313 202.535 131.53 189.134C137.956 168.714 138.98 164.551 137.85 163.43C136.311 161.903 110.998 156.998 104.685 157.004C102.385 157.006 89.4797 158.549 76.0087 160.434C52.2287 163.761 51.4407 163.944 48.9587 166.722C44.9897 171.165 21.0997 216.425 19.8367 221.894C17.4657 232.167 25.1197 240.096 34.4397 237.021C40.2597 235.1 43.7347 230.659 55.5017 210.112C61.5517 199.547 67.5587 190.211 68.8507 189.364C71.7877 187.439 105.508 185.106 107.119 186.717C107.795 187.393 107.449 191.139 106.068 198.112C98.4197 236.71 96.7277 246.007 96.6217 250L96.5017 254.5L131.73 254.763L166.957 255.026L167.451 252.763C167.722 251.518 168.598 246 169.397 240.5C174.134 207.907 177.259 188.421 177.84 187.863C178.204 187.513 191.524 185.275 207.44 182.89C241.297 177.817 239.706 178.558 246.673 164.611C249.176 159.6 255.421 147.625 260.552 138C271.345 117.752 272.944 113.088 271.148 107.092C269.098 100.251 262.954 98.293 255.349 102.057ZM461.002 115.008V130.285L467.131 129.644C477.784 128.531 483.002 123.271 483.002 113.646C483.002 104.393 479.189 101.033 467.76 100.215L461.002 99.731V115.008ZM341.664 182.75C341.413 183.162 339.82 187.1 338.124 191.5C330.854 210.358 310.952 236.505 290.05 254.659C285.084 258.971 281.017 263.049 281.012 263.721C281.005 264.606 284.59 265.019 294.053 265.221L307.103 265.5L298.612 282.5C280.225 319.31 265.331 340.135 244.111 358.709C216.571 382.813 176.904 401.056 127.002 412.568C115.823 415.147 112.953 416.284 114.278 417.609C115.254 418.586 141.346 416.234 155.211 413.92C229.442 401.528 297.587 352.063 329.134 287.671C332.414 280.977 335.654 274.378 336.334 273.007C338.297 269.05 340.561 269.4 343.967 274.187L350.769 283.745C356.048 291.162 358.475 290.987 357.64 283.25C357.299 280.087 356.324 268.727 355.472 258.005C353.6 234.43 351.824 221.224 347.904 201.724C344.321 183.905 343.142 180.32 341.664 182.75ZM10.3747 238.669C8.18474 243.147 7.51274 246.142 7.17774 252.919C6.76774 261.245 6.66174 261.56 3.62874 263.513C-1.24726 266.653 -1.00326 270.221 5.47474 290.46C11.3077 308.684 12.7017 311 17.8387 311C23.8327 311 68.4567 295.878 71.2517 292.899C74.8377 289.077 74.9007 289.6 68.3927 269.136C62.1157 249.397 60.3497 246.644 54.2947 247.166C50.9587 247.454 50.7957 247.299 49.0737 242.212C46.7697 235.405 46.5517 235.249 42.4627 237.451C38.4627 239.605 38.5917 239.078 40.5147 245.415C41.3347 248.118 41.8917 250.434 41.7537 250.562C41.6147 250.689 35.8767 252.586 29.0017 254.776L16.5017 258.759L16.2017 253.932C15.9977 250.661 16.5927 247.498 18.0467 244.118C20.1387 239.255 20.1467 239.054 18.3807 236.065C15.6677 231.472 13.5607 232.157 10.3747 238.669ZM852.002 258.444C852.002 268.632 874.069 270.499 879.976 260.81C882.745 256.269 882.613 256 877.617 256C874.018 256 872.932 256.458 871.558 258.555C869.26 262.063 861.692 261.841 861.182 258.25C860.676 254.687 852.002 254.871 852.002 258.444ZM423.002 260.459C423.002 260.712 420.977 270.455 418.502 282.11C412.966 308.182 412.935 306 418.832 306H423.661L425.381 298L427.1 290H431.839C448.245 290 456.73 270.799 444.09 262.28C440.991 260.192 423.002 258.638 423.002 260.459ZM50.1397 266.918C42.1517 277.9 30.8147 281.581 18.9087 277.057L13.7947 275.113L15.6477 277.163C25.9247 288.527 46.9497 284.177 52.5437 269.53C55.0977 262.841 53.9847 261.632 50.1397 266.918ZM95.2207 266.251C94.6567 266.938 87.8797 284.336 80.1597 304.914L66.1227 342.328L59.7157 348.914C17.2117 392.61 14.1377 396.518 15.3217 405.349C16.5277 414.346 26.8487 417.903 36.6647 412.705C41.0567 410.379 90.1607 364.019 91.9237 360.534C92.4897 359.415 98.1827 344.55 104.576 327.5C110.968 310.45 116.751 295.919 117.426 295.21C119.506 293.024 172.706 305.955 175.633 309.357C178.22 312.365 178.82 317.964 179.292 343.5C179.564 358.228 179.888 361.125 181.716 365.179C187.447 377.885 203.754 374.733 206.841 360.323C208.07 354.586 208.398 315.251 207.349 299.514C206.434 285.787 205.881 285.274 187.452 281.044C164.905 275.868 165.584 276.157 165.002 271.5L164.502 267.5L155.502 266.862C134.339 265.362 96.2667 264.976 95.2207 266.251ZM431.537 269.25C430.533 272.367 429.006 281.337 429.41 281.741C431.699 284.03 440.002 277.856 440.002 273.865C440.002 269.869 432.631 265.851 431.537 269.25ZM463.806 272.041C451.873 278.343 448.715 300.18 458.969 305.483C462.707 307.416 472.019 307.437 476.599 305.524C479.75 304.207 480.098 303.694 479.817 300.774C479.593 298.446 479.069 297.613 478.002 297.891C467.094 300.736 463.002 299.804 463.002 294.477C463.002 292.221 463.389 292 467.353 292C479.258 292 487.369 284.128 483.955 275.887C481.534 270.042 471.292 268.087 463.806 272.041ZM494.502 271.216C492.852 271.798 491.387 272.364 491.247 272.475C491.108 272.585 491.501 274.133 492.122 275.915C493.093 278.7 493.601 279.067 495.743 278.529C502.3 276.883 503.646 276.866 504.93 278.414C506.693 280.537 505.035 282.512 500.172 284.084C492.643 286.518 488.885 289.036 487.37 292.663C484.03 300.656 489.225 307 499.111 307C508.034 307 512.002 305.015 512.002 300.551C512.002 298.598 511.857 297 511.68 297C511.503 297 509.242 297.721 506.656 298.602C495.647 302.354 493.043 296.294 503.817 291.996C514.018 287.927 517.723 282.569 514.955 275.887C512.735 270.526 502.856 268.27 494.502 271.216ZM568.339 272.514C557.133 279.231 555.35 300.103 565.515 305.577C570.128 308.061 578.791 307.161 583.289 303.73C593.066 296.273 593.828 275.431 584.48 271.172C580.063 269.159 572.949 269.751 568.339 272.514ZM646.688 271.868C636.352 278.684 633.208 301.294 641.947 305.97C646.166 308.228 653.167 306.568 656.339 302.558C656.823 301.946 656.962 302.471 656.668 303.804C656.196 305.951 656.44 306.087 660.26 305.804L664.359 305.5L668.014 288.5L671.67 271.5L668.126 271.177C665.675 270.954 664.201 271.375 663.347 272.543C662.201 274.11 661.918 274.079 659.422 272.116C656.067 269.477 650.48 269.368 646.688 271.868ZM691.022 271.699C686.849 273.859 683.782 278.211 681.055 285.843C677.642 295.397 675.705 298.509 673.228 298.421C671.257 298.35 671.002 298.837 671.002 302.671V307H675.579C681.239 307 684.781 303.875 687.478 296.5C692.613 282.464 693.582 280.524 696.195 279.061C700.349 276.736 700.507 278.053 697.655 291.246C694.248 307.006 694.1 306 699.832 306H704.662L708.18 289.25C710.282 279.244 711.339 272.1 710.805 271.505C709.084 269.587 694.834 269.727 691.022 271.699ZM951.806 272.041C939.873 278.343 936.715 300.18 946.969 305.483C950.707 307.416 960.019 307.437 964.599 305.524C967.75 304.207 968.098 303.694 967.817 300.774C967.593 298.446 967.069 297.613 966.002 297.891C955.094 300.736 951.002 299.804 951.002 294.477C951.002 292.221 951.389 292 955.353 292C967.258 292 975.369 284.128 971.955 275.887C969.534 270.042 959.292 268.087 951.806 272.041ZM1034.64 272.47C1031.19 274.812 1031 274.838 1031 272.97C1031 271.353 1030.32 271 1027.17 271H1023.34L1020.15 286.25C1018.39 294.637 1016.69 302.512 1016.36 303.75C1015.8 305.864 1016.07 306 1020.82 306C1026.53 306 1025.93 306.913 1028.59 294.152C1031.05 282.352 1036.02 275.591 1039.6 279.169C1041.21 280.783 1040.47 286.34 1036.32 303.75C1035.82 305.857 1036.11 306 1040.82 306H1045.87L1047.52 298.25C1051.02 281.791 1055.83 274.477 1059.92 279.399C1060.81 280.472 1060.59 283.085 1058.99 290.649C1058.1 294.849 1057.22 299.049 1056.33 303.25C1055.76 305.967 1055.81 306 1060.88 306C1063.7 306 1066 305.782 1066 305.516C1066 305.25 1067.16 299.528 1068.58 292.802C1071.37 279.621 1071.23 275.934 1067.81 272.298C1064.33 268.593 1055.98 269.71 1052.08 274.399C1050.97 275.742 1050.51 275.565 1048.32 272.965C1045.08 269.114 1039.87 268.925 1034.64 272.47ZM1092.08 272.589C1089.12 275.08 1089 275.099 1089 273.089C1089 271.336 1088.39 271 1085.2 271H1081.39L1076.18 295.75C1073.32 309.363 1070.98 320.837 1070.99 321.25C1071 321.663 1073.2 322 1075.9 322H1080.79L1082.57 312.562L1084.34 303.125L1086.81 305.062C1095.96 312.265 1109 299.531 1109 283.384C1109 271.714 1099.97 265.951 1092.08 272.589ZM523.666 277.75C519.273 297.571 519.222 300.476 523.192 304.702C526.481 308.204 532.914 307.894 537.324 304.022L540.716 301.044L540.243 303.522C539.8 305.835 540.043 306 543.885 306C546.15 306 548.002 305.807 548.002 305.571C548.002 305.335 549.577 297.941 551.502 289.139C555.819 269.403 555.933 271 550.203 271H545.404L543.181 280.75C540.553 292.276 538.512 296.811 535.291 298.278C529.335 300.992 529.217 296.172 534.682 273.25C535.185 271.144 534.897 271 530.191 271H525.162L523.666 277.75ZM599.14 286.454C597.324 294.953 595.598 302.828 595.304 303.954C594.817 305.816 595.223 306 599.818 306C605.42 306 605.085 306.432 607.004 296.75L608.144 291H618.822L617.447 296.75C615.259 305.906 615.294 306 620.819 306H625.636L628.911 290.75C630.711 282.363 632.418 274.488 632.702 273.25C633.185 271.146 632.892 271 628.18 271H623.14L621.756 277.25L620.373 283.5L615.187 283.802C612.335 283.969 610.009 283.744 610.018 283.302C610.026 282.861 610.642 279.913 611.386 276.75L612.739 271H602.44L599.14 286.454ZM719.623 278.069C715.003 298.526 715.216 302.508 721.093 305.547C724.647 307.385 734.049 307.425 738.366 305.621C750.882 300.392 747.774 285 734.203 285H728.25L729.591 278.75C730.328 275.313 730.948 272.163 730.967 271.75C730.986 271.337 728.801 271 726.111 271H721.219L719.623 278.069ZM755.14 286.454C753.324 294.953 751.598 302.828 751.304 303.954C750.817 305.816 751.223 306 755.818 306C761.42 306 761.085 306.432 763.004 296.75L764.144 291H774.822L773.447 296.75C771.259 305.906 771.294 306 776.819 306H781.636L784.911 290.75C786.711 282.363 788.418 274.488 788.702 273.25C789.185 271.146 788.892 271 784.18 271H779.14L777.756 277.25L776.373 283.5L771.187 283.802C768.335 283.969 766.009 283.744 766.018 283.302C766.026 282.861 766.642 279.913 767.386 276.75L768.739 271H758.44L755.14 286.454ZM796.668 277.75C795.847 281.462 794.626 287.035 793.955 290.134C791.434 301.783 795.156 306.993 806.002 306.993C813.972 306.993 820.448 302.473 821.036 296.5C821.799 288.742 818.364 285 810.48 285H805.25L806.591 278.75C807.328 275.313 807.948 272.163 807.967 271.75C807.986 271.337 805.788 271 803.082 271H798.162L796.668 277.75ZM827.663 287.793C825.649 297.029 824.002 304.904 824.002 305.293C824.002 305.682 826.252 306 829.002 306C831.752 306 834.002 305.801 834.002 305.558C834.002 305.314 835.577 297.863 837.502 289C839.427 280.137 841.002 272.461 841.002 271.942C841.002 271.424 838.824 271 836.163 271H831.324L827.663 287.793ZM848.666 277.75C844.273 297.571 844.222 300.476 848.192 304.702C851.481 308.204 857.914 307.894 862.324 304.022L865.716 301.044L865.243 303.522C864.8 305.835 865.043 306 868.885 306C871.15 306 873.002 305.807 873.002 305.571C873.002 305.335 874.577 297.941 876.502 289.139C880.819 269.403 880.933 271 875.203 271H870.404L868.181 280.75C865.553 292.276 863.512 296.811 860.291 298.278C854.335 300.992 854.217 296.172 859.682 273.25C860.185 271.144 859.897 271 855.191 271H850.162L848.666 277.75ZM904.666 277.75C900.273 297.571 900.222 300.476 904.192 304.702C907.321 308.033 913.803 307.88 917.968 304.376C919.683 302.932 921.185 301.92 921.305 302.126C921.425 302.332 922.316 303.447 923.285 304.604C924.907 306.54 924.933 307.197 923.613 312.854L922.179 319H931.728L933.423 310.25C934.355 305.438 935.335 300.75 935.601 299.833C935.969 298.564 935.6 298.292 934.055 298.696C930.85 299.534 930.757 297.294 933.475 284.724C936.662 269.98 936.831 271 931.203 271H926.404L924.181 280.75C921.553 292.276 919.512 296.811 916.291 298.278C910.335 300.992 910.217 296.172 915.682 273.25C916.185 271.144 915.897 271 911.191 271H906.162L904.666 277.75ZM980.14 286.454C978.324 294.953 976.598 302.828 976.304 303.954C975.817 305.816 976.223 306 980.818 306C986.42 306 986.085 306.432 988.004 296.75L989.144 291H999.822L998.447 296.75C996.259 305.906 996.294 306 1001.82 306H1006.64L1009.91 290.75C1011.71 282.363 1013.42 274.488 1013.7 273.25C1014.18 271.146 1013.89 271 1009.18 271H1004.14L1002.76 277.25L1001.37 283.5L996.187 283.802C993.335 283.969 991.009 283.744 991.018 283.302C991.026 282.861 991.642 279.913 992.386 276.75L993.739 271H983.44L980.14 286.454ZM468.752 278.06C466.8 279.219 463.561 284.892 464.382 285.713C465.333 286.664 471.903 284.956 473.523 283.336C477.11 279.749 473.196 275.419 468.752 278.06ZM956.752 278.06C954.8 279.219 951.561 284.892 952.382 285.713C953.333 286.664 959.903 284.956 961.523 283.336C965.11 279.749 961.196 275.419 956.752 278.06ZM573.763 279.384C569.056 282.958 567.221 295.976 571.128 298.068C576.032 300.692 581.002 294.265 581.002 285.299C581.002 278.515 578.067 276.116 573.763 279.384ZM652.657 279.133C648.132 281.763 645.187 295.249 648.532 298.025C654.085 302.634 662.677 284.818 657.431 279.571C655.597 277.738 655.131 277.695 652.657 279.133ZM1092.12 279.631C1087.47 282.89 1085.07 295.155 1088.53 298.025C1093.88 302.464 1102.59 284.731 1097.54 279.681C1095.46 277.601 1095.02 277.597 1092.12 279.631ZM727.042 293.452C724.132 296.958 728.021 301.083 732.69 299.441C737.758 297.659 736.474 292 731.002 292C729.487 292 727.705 292.653 727.042 293.452ZM804.202 293.2C802.549 294.853 802.699 297.504 804.532 299.025C806.835 300.936 811.002 298.749 811.002 295.628C811.002 292.263 806.682 290.72 804.202 293.2ZM1027.53 336.25C1027.3 336.938 1026.63 339.983 1026.04 343.019L1024.96 348.538L1019.85 349.751C1009.65 352.174 1004.07 359.393 1004.02 370.215C1004 376.912 1007.53 382.029 1013.55 384.016C1015.45 384.643 1016.99 385.458 1016.98 385.828C1016.96 386.432 1015.86 391.647 1014.47 397.75C1014 399.847 1014.3 400 1018.87 400C1023.76 400 1023.78 399.983 1024.45 396.25C1025.77 388.886 1027.1 385 1028.29 384.994C1046.74 384.91 1055.19 358.069 1039.16 350.5C1034.54 348.317 1034.71 349.15 1036.63 338.5L1037.26 335H1032.6C1029.76 335 1027.78 335.487 1027.53 336.25ZM431.642 350.47C428.19 352.812 428.002 352.838 428.002 350.97C428.002 349.353 427.316 349 424.172 349H420.341L417.147 364.25C415.39 372.637 413.686 380.512 413.36 381.75C412.804 383.864 413.073 384 417.818 384C423.503 384 422.893 384.909 425.531 372.5C428.067 360.569 431.612 355.107 435.93 356.477C438.581 357.319 438.549 358.873 435.593 372.799L433.195 384.098L438.278 383.799L443.362 383.5L445.642 373C448.713 358.859 448.693 354.037 445.55 350.646C442.28 347.117 436.686 347.047 431.642 350.47ZM463.339 350.514C452.133 357.231 450.35 378.103 460.515 383.577C465.128 386.061 473.791 385.161 478.289 381.73C488.066 374.273 488.828 353.431 479.48 349.172C475.063 347.159 467.949 347.751 463.339 350.514ZM503.502 349.363C490.311 355.489 487.434 377.518 499.041 383.52C511.18 389.797 528.707 378.067 520.59 369.098C518.829 367.151 518.857 367.029 521.618 364.654C525.563 361.261 525.625 355.169 521.756 351.299C518.494 348.038 508.613 346.99 503.502 349.363ZM651.806 350.041C639.873 356.343 636.715 378.18 646.969 383.483C650.707 385.416 660.019 385.437 664.599 383.524C667.75 382.207 668.098 381.694 667.817 378.774C667.593 376.446 667.069 375.613 666.002 375.891C655.094 378.736 651.002 377.804 651.002 372.477C651.002 370.221 651.389 370 655.353 370C667.258 370 675.369 362.128 671.955 353.887C669.534 348.042 659.292 346.087 651.806 350.041ZM859.502 349.363C846.311 355.489 843.434 377.518 855.041 383.52C867.18 389.797 884.707 378.067 876.59 369.098C874.829 367.151 874.857 367.029 877.618 364.654C881.563 361.261 881.625 355.169 877.756 351.299C874.494 348.038 864.613 346.99 859.502 349.363ZM895.688 349.868C885.352 356.684 882.208 379.294 890.947 383.97C895.166 386.228 902.167 384.568 905.339 380.558C905.823 379.946 905.962 380.471 905.668 381.804C905.196 383.951 905.44 384.087 909.26 383.804L913.359 383.5L917.014 366.5L920.67 349.5L917.126 349.177C914.675 348.954 913.201 349.375 912.347 350.543C911.201 352.11 910.918 352.079 908.422 350.116C905.067 347.477 899.48 347.368 895.688 349.868ZM939.022 349.699C934.849 351.859 931.782 356.211 929.055 363.843C925.642 373.397 923.705 376.509 921.228 376.421C919.257 376.35 919.002 376.837 919.002 380.671V385H923.579C929.239 385 932.781 381.875 935.478 374.5C940.613 360.464 941.582 358.524 944.195 357.061C948.349 354.736 948.507 356.053 945.655 369.246C942.248 385.006 942.1 384 947.832 384H952.662L956.18 367.25C958.282 357.244 959.339 350.1 958.805 349.505C957.084 347.587 942.834 347.727 939.022 349.699ZM1139.69 349.868C1129.35 356.684 1126.21 379.294 1134.95 383.97C1139.17 386.228 1146.17 384.568 1149.34 380.558C1149.82 379.946 1149.96 380.471 1149.67 381.804C1149.2 383.951 1149.44 384.087 1153.26 383.804L1157.36 383.5L1161.01 366.5L1164.67 349.5L1161.13 349.177C1158.67 348.954 1157.2 349.375 1156.35 350.543C1155.2 352.11 1154.92 352.079 1152.42 350.116C1149.07 347.477 1143.48 347.368 1139.69 349.868ZM533.668 355.75C532.847 359.462 531.626 365.035 530.955 368.134C528.434 379.783 532.156 384.993 543.002 384.993C550.972 384.993 557.448 380.473 558.036 374.5C558.799 366.742 555.364 363 547.48 363H542.25L543.591 356.75C544.328 353.313 544.948 350.163 544.967 349.75C544.986 349.337 542.788 349 540.082 349H535.162L533.668 355.75ZM564.663 365.793C562.649 375.029 561.002 382.904 561.002 383.293C561.002 383.682 563.252 384 566.002 384C568.752 384 571.002 383.801 571.002 383.558C571.002 383.314 572.577 375.863 574.502 367C576.427 358.137 578.002 350.461 578.002 349.942C578.002 349.424 575.824 349 573.163 349H568.324L564.663 365.793ZM585.666 355.75C581.273 375.571 581.222 378.476 585.192 382.702C588.943 386.695 597.702 385.121 601.441 379.783C602.557 378.19 603.002 377.996 603.002 379.103C603.002 385.853 617.132 386.757 620.922 380.25C621.793 378.754 621.946 378.899 621.972 381.25C621.999 383.756 622.335 384 625.752 384L629.502 383.999L632.924 367.75C634.806 358.812 636.541 350.938 636.781 350.25C637.092 349.357 635.764 349 632.128 349C627.672 349 626.975 349.28 626.52 351.25C625.82 354.312 625.125 357.376 624.435 360.44C622.303 369.897 620.642 373.534 617.526 375.577C611.501 379.524 611.172 370.237 616.645 350.75C617.067 349.25 616.417 349 612.088 349C607.393 349 606.998 349.192 606.439 351.75C601.816 372.916 597.838 380.265 593.405 375.831C591.791 374.217 592.532 368.66 596.682 351.25C597.185 349.144 596.897 349 592.191 349H587.162L585.666 355.75ZM679.14 364.454C677.324 372.953 675.598 380.828 675.304 381.954C674.817 383.816 675.223 384 679.818 384C685.42 384 685.085 384.432 687.004 374.75L688.144 369H698.822L697.447 374.75C695.259 383.906 695.294 384 700.819 384H705.636L708.911 368.75C710.711 360.363 712.418 352.488 712.702 351.25C713.185 349.146 712.892 349 708.18 349H703.14L701.756 355.25L700.373 361.5L695.187 361.802C692.335 361.969 690.009 361.744 690.018 361.302C690.026 360.861 690.642 357.913 691.386 354.75L692.739 349H682.44L679.14 364.454ZM720.666 355.75C716.273 375.571 716.222 378.476 720.192 382.702C723.481 386.204 729.914 385.894 734.324 382.022L737.716 379.044L737.243 381.522C736.8 383.835 737.043 384 740.885 384C743.15 384 745.002 383.807 745.002 383.571C745.002 383.335 746.577 375.941 748.502 367.139C752.819 347.403 752.933 349 747.203 349H742.404L740.181 358.75C737.553 370.276 735.512 374.811 732.291 376.278C726.335 378.992 726.217 374.172 731.682 351.25C732.185 349.144 731.897 349 727.191 349H722.162L720.666 355.75ZM766.502 350.403C761.594 352.569 759.502 355.653 759.502 360.721C759.502 364.058 760.022 365.627 761.502 366.751C763.457 368.237 763.408 368.373 759.334 372.774C756.553 375.779 754.64 377.075 753.584 376.67C752.287 376.172 752.002 376.867 752.002 380.531V385H756.068C761.651 385 763.548 383.749 767.622 377.379C773.363 368.405 775.825 368.609 773.683 377.881L772.27 384H782.51L785.908 367.75C787.777 358.813 789.511 350.938 789.761 350.25C790.408 348.472 770.581 348.602 766.502 350.403ZM813.14 364.454C811.324 372.953 809.598 380.828 809.304 381.954C808.816 383.818 809.223 384 813.866 384C818.334 384 819.027 383.722 819.476 381.75C820.077 379.049 820.667 376.345 821.245 373.639L822.502 367.778L826.452 375.889L830.402 384H835.702C842.035 384 841.926 384.793 836.949 374.894C833.532 368.098 833.095 366.572 834.168 365.166C834.868 364.25 838.307 360.238 841.811 356.25L848.182 349H836.282L830.002 356.5C826.548 360.625 823.619 364 823.493 364C823.368 364 823.873 361.413 824.618 358.25C826.763 349.135 826.713 349 821.221 349H816.44L813.14 364.454ZM967.666 355.75C963.273 375.571 963.222 378.476 967.192 382.702C970.481 386.204 976.914 385.894 981.324 382.022L984.716 379.044L984.243 381.522C983.8 383.835 984.043 384 987.885 384C990.15 384 992.002 383.807 992.002 383.571C992.002 383.335 993.577 375.941 995.502 367.139C999.819 347.403 999.933 349 994.203 349H989.404L987.181 358.75C984.553 370.276 982.512 374.811 979.291 376.278C973.335 378.992 973.217 374.172 978.682 351.25C979.185 349.144 978.897 349 974.191 349H969.162L967.666 355.75ZM1056.67 355.75C1052.27 375.571 1052.22 378.476 1056.19 382.702C1059.48 386.204 1065.91 385.894 1070.32 382.022L1073.72 379.044L1073.24 381.522C1072.8 383.835 1073.04 384 1076.88 384C1079.15 384 1081 383.807 1081 383.571C1081 383.335 1082.58 375.941 1084.5 367.139C1088.82 347.403 1088.93 349 1083.2 349H1078.4L1076.18 358.75C1073.55 370.276 1071.51 374.811 1068.29 376.278C1062.33 378.992 1062.22 374.172 1067.68 351.25C1068.18 349.144 1067.9 349 1063.19 349H1058.16L1056.67 355.75ZM1094.14 364.454C1092.32 372.953 1090.6 380.828 1090.3 381.954C1089.82 383.818 1090.22 384 1094.87 384C1099.33 384 1100.03 383.722 1100.48 381.75C1101.08 379.049 1101.67 376.345 1102.24 373.639L1103.5 367.778L1107.45 375.889L1111.4 384H1116.7C1123.03 384 1122.93 384.793 1117.95 374.894C1114.53 368.098 1114.09 366.572 1115.17 365.166C1115.87 364.25 1119.31 360.238 1122.81 356.25L1129.18 349H1117.28L1111 356.5C1107.55 360.625 1104.62 364 1104.49 364C1104.37 364 1104.87 361.413 1105.62 358.25C1107.76 349.135 1107.71 349 1102.22 349H1097.44L1094.14 364.454ZM1172.67 355.75C1168.27 375.571 1168.22 378.476 1172.19 382.702C1175.32 386.033 1181.8 385.88 1185.97 382.376C1187.68 380.932 1189.18 379.92 1189.3 380.126C1189.42 380.332 1190.32 381.447 1191.28 382.604C1192.91 384.54 1192.93 385.197 1191.61 390.854L1190.18 397H1199.73L1201.42 388.25C1202.35 383.438 1203.33 378.75 1203.6 377.833C1203.97 376.564 1203.6 376.292 1202.05 376.696C1198.85 377.534 1198.76 375.294 1201.47 362.724C1204.66 347.98 1204.83 349 1199.2 349H1194.4L1192.18 358.75C1189.55 370.276 1187.51 374.811 1184.29 376.278C1178.33 378.992 1178.22 374.172 1183.68 351.25C1184.18 349.144 1183.9 349 1179.19 349H1174.16L1172.67 355.75ZM1212.67 355.75C1208.27 375.571 1208.22 378.476 1212.19 382.702C1215.48 386.204 1221.91 385.894 1226.32 382.022L1229.72 379.044L1229.24 381.522C1228.8 383.835 1229.04 384 1232.88 384C1235.15 384 1237 383.807 1237 383.571C1237 383.335 1238.58 375.941 1240.5 367.139C1244.82 347.403 1244.93 349 1239.2 349H1234.4L1232.18 358.75C1229.55 370.276 1227.51 374.811 1224.29 376.278C1218.33 378.992 1218.22 374.172 1223.68 351.25C1224.18 349.144 1223.9 349 1219.19 349H1214.16L1212.67 355.75ZM1251.67 355.75C1247.27 375.571 1247.22 378.476 1251.19 382.702C1254.48 386.204 1260.91 385.894 1265.32 382.022L1268.72 379.044L1268.24 381.522C1267.8 383.835 1268.04 384 1271.88 384C1274.15 384 1276 383.807 1276 383.571C1276 383.335 1277.58 375.941 1279.5 367.139C1283.82 347.403 1283.93 349 1278.2 349H1273.4L1271.18 358.75C1268.55 370.276 1266.51 374.811 1263.29 376.278C1257.33 378.992 1257.22 374.172 1262.68 351.25C1263.18 349.144 1262.9 349 1258.19 349H1253.16L1251.67 355.75ZM507.752 356.06C506.789 356.632 505.315 358.427 504.476 360.05L502.951 363H506.866C511.97 363 516.006 359.954 514.4 357.313C513.092 355.161 510.186 354.614 507.752 356.06ZM656.752 356.06C654.8 357.219 651.561 362.892 652.382 363.713C653.333 364.664 659.903 362.956 661.523 361.336C665.11 357.749 661.196 353.419 656.752 356.06ZM863.752 356.06C862.789 356.632 861.315 358.427 860.476 360.05L858.951 363H862.866C867.97 363 872.006 359.954 870.4 357.313C869.092 355.161 866.186 354.614 863.752 356.06ZM468.763 357.384C464.056 360.958 462.221 373.976 466.128 376.068C471.032 378.692 476.002 372.265 476.002 363.299C476.002 356.515 473.067 354.116 468.763 357.384ZM771.752 357.08C769.533 358.373 769.413 363.56 771.584 364.393C775.971 366.077 778.002 363.856 778.002 357.375C778.002 355.772 774.298 355.597 771.752 357.08ZM901.657 357.133C897.132 359.763 894.187 373.249 897.532 376.025C903.085 380.634 911.677 362.818 906.431 357.571C904.597 355.738 904.131 355.695 901.657 357.133ZM1020.26 357.087C1014.58 359.222 1011.88 370.877 1016.08 375.083C1018.74 377.738 1018.54 378.072 1020.99 367.072C1023.36 356.403 1023.33 355.933 1020.26 357.087ZM1145.66 357.133C1141.13 359.763 1138.19 373.249 1141.53 376.025C1147.08 380.634 1155.68 362.818 1150.43 357.571C1148.6 355.738 1148.13 355.695 1145.66 357.133ZM1032.53 358.25C1031.18 362.357 1028.88 375.208 1029.39 375.722C1031.77 378.102 1038 369.403 1038 363.702C1038 359.516 1033.56 355.093 1032.53 358.25ZM502.002 372.429C502.002 375.152 504.372 378 506.639 378C511.639 378 514.243 371.834 509.752 370.63C504.621 369.255 502.002 369.863 502.002 372.429ZM541.202 371.2C539.549 372.853 539.699 375.504 541.532 377.025C543.835 378.936 548.002 376.749 548.002 373.628C548.002 370.263 543.682 368.72 541.202 371.2ZM858.002 372.429C858.002 375.152 860.372 378 862.639 378C867.639 378 870.243 371.834 865.752 370.63C860.621 369.255 858.002 369.863 858.002 372.429Z" fill="#FBFBFB" stroke="#FBFBFB"/>
<path fill-rule="evenodd" clip-rule="evenodd" d="M426.002 135.91V200H460.002V158.294L471.752 157.726C503.065 156.213 517.953 141.951 517.99 113.432C518.018 92.2723 509.161 80.0773 489.502 74.2063C485.745 73.0843 477.228 72.6013 455.252 72.2663L426.002 71.8203V135.91ZM539.002 136V200H637.002V240H670.002V172H644.002V72.0003H609.002V172H573.002V72.0003H539.002V136ZM688.002 136V200H722.002V100H758.002V200H792.002V72.0003H688.002V136ZM820.002 136V200H854.002V167.941C854.002 150.309 854.368 136.108 854.814 136.384C855.261 136.66 863.924 151.087 874.064 168.443L892.501 200H911.787C930.81 200 931.058 199.973 929.994 197.985C929.401 196.877 920.16 182.037 909.459 165.007C888.403 131.5 889.149 133.02 891.872 129.154C892.9 127.694 901.659 114.228 911.337 99.2293L928.933 71.9573L909.887 72.2293L890.842 72.5003L873.563 101.809C864.059 117.929 855.77 131.632 855.143 132.259C854.288 133.114 854.002 125.695 854.002 102.7V72.0003H820.002V136ZM148.357 97.4473C127.226 106.641 128.208 137.09 149.874 144.472C170.067 151.353 188.434 132.299 181.428 111.737C177.337 99.7303 160.164 92.3093 148.357 97.4473ZM460.002 115V130L465.752 129.998C475.759 129.996 482.157 124.818 483.539 115.603C485.03 105.656 479.135 100.01 467.252 100.004L460.002 100V115ZM253.402 103.839C250.253 106.13 247.094 111.058 237.002 129.419C228.128 145.565 223.75 152.557 221.909 153.525C220.483 154.275 204.508 156.959 186.409 159.49C168.31 162.02 152.663 164.342 151.638 164.649C149.894 165.171 149.822 166.025 150.519 177.854C150.928 184.809 151.562 196.8 151.927 204.5L152.591 218.5L143.432 227.902L134.274 237.303L128.511 226.56L122.748 215.816L130.393 191.158C139.488 161.824 139.324 163.493 133.252 162.143C119.522 159.089 112.007 158 104.653 158C95.0034 158 54.5884 163.661 51.0024 165.515C48.7084 166.701 34.0234 192.37 23.2674 213.995C16.8484 226.901 20.1494 237 30.7864 237C37.9364 237 41.2864 233.377 53.4874 212.443C66.2314 190.576 67.9904 188.251 72.3124 187.553C80.2264 186.276 106.523 185.121 107.413 186.011C108.578 187.176 107.781 192.272 101.039 226.767C98.2154 241.213 96.1784 253.476 96.5124 254.017C97.4864 255.591 165.941 255.331 166.534 253.75C167.22 251.925 176.002 194.022 176.002 191.329C176.002 187.607 179.481 186.46 199.502 183.58C228.458 179.415 236.311 177.997 238.591 176.519C239.741 175.774 244.126 168.49 248.337 160.332C253.371 150.59 258.424 140.859 263.498 131.138C272.217 114.45 273.347 108.255 268.547 103.455C264.986 99.8933 258.601 100.055 253.402 103.839ZM341.395 184.583C333.542 206.969 320.335 225.749 295.52 249.812C287.057 258.02 281.461 264.165 282.094 264.557C282.692 264.926 288.264 264.911 294.476 264.523C302.948 263.994 305.96 264.123 306.528 265.042C307.407 266.464 293.182 295.38 284.048 310.738C252.514 363.76 208.221 393.055 130.502 412.292C111.183 417.074 112.865 418.355 135.406 416.03C203.859 408.966 263.052 377.341 303.983 325.963C317.468 309.036 322.127 301.283 335.812 273C338.557 267.328 340.568 268.307 348.008 278.935C358.315 293.659 358.115 294.255 355.007 258.057C352.706 231.265 351.047 219.228 346.865 199C343.818 184.261 342.618 181.097 341.395 184.583ZM12.5714 235.205C9.76144 239.217 7.64044 247.401 7.57144 254.5C7.50644 261.117 7.33944 261.61 4.51544 263.531C-1.00856 267.287 -0.946561 269.019 5.40744 288.684C11.5084 307.569 12.0534 308.689 15.8294 310.124C19.0914 311.365 68.6134 295.905 71.2524 292.823C73.8804 289.753 73.4894 287.207 67.5204 268.512C61.4754 249.579 60.1314 247.49 54.1504 247.729C50.4744 247.875 50.3914 247.794 48.4614 242.189C46.3404 236.03 45.7214 235.637 42.1404 238.173C39.8574 239.789 39.8224 240.018 41.0814 244.931C41.8924 248.094 42.0294 250.345 41.4434 250.883C39.7504 252.442 17.0464 259.145 15.8884 258.429C14.2844 257.438 15.5774 247.783 17.9784 242.814C19.9154 238.804 19.9154 238.802 17.7714 235.901C15.1974 232.419 14.5804 232.337 12.5714 235.205ZM852.002 257.55C852.002 269.181 873.75 270.406 880.344 259.145L882.186 256H877.755C874.044 256 873.145 256.391 872.227 258.406C870.145 262.974 861.991 262.692 860.502 258.001C859.684 255.422 852.002 255.014 852.002 257.55ZM50.6834 265.424C42.5344 277.698 29.6544 281.418 16.3254 275.347C14.7214 274.614 13.1137 273.889 11.5024 273.171C10.9524 272.932 11.8524 274.188 13.5024 275.962C27.4834 290.99 51.1444 284.226 54.4704 264.25C55.3814 258.778 55.0234 258.889 50.6834 265.424ZM423.538 261.125C423.031 262.532 414.002 304.618 414.002 305.579C414.002 305.871 416.118 305.972 418.705 305.805L423.408 305.5L424.996 298.049L426.585 290.598L433.043 289.508C440.593 288.235 442.88 287.122 446.3 283.057C451.577 276.786 450.444 266.317 444.088 262.613C439.708 260.062 424.325 258.948 423.538 261.125ZM81.6024 302.608C74.0004 322.899 67.2674 340.47 66.6414 341.656C66.0144 342.841 55.2254 354.468 42.6644 367.492C19.1884 391.835 16.0674 396.02 16.0244 403.203C15.9614 413.851 24.3524 417.844 35.6924 412.564C39.5264 410.779 45.9294 405.213 60.1924 391.264C70.8134 380.879 81.8994 370.177 84.8284 367.483C91.5444 361.306 90.1644 364.187 104.167 327.092C110.725 309.716 116.634 294.994 117.297 294.375C118.694 293.072 170.695 304.914 174.488 307.399C178.198 309.83 178.836 313.609 179.741 338.5C180.704 365.016 181.246 367.349 187.301 371.04C193.538 374.844 200.86 372.301 204.727 364.987C206.968 360.75 207.002 360.161 207.002 325.858V291.032L204.21 287.906C201.669 285.063 199.799 284.399 183.46 280.537L165.502 276.293L165.196 272.723C165.028 270.759 164.353 268.706 163.696 268.161C163 267.584 148.504 266.867 128.963 266.443L95.4244 265.717L81.6024 302.608ZM430.14 273.667C428.524 281.715 428.589 282 432.047 282C438.204 282 442.498 273.639 438.431 269.571C434.72 265.861 431.376 267.513 430.14 273.667ZM466.195 271.207C456.182 274.583 449.628 291.955 455.028 300.81C458.43 306.391 464.326 307.982 473.953 305.917C478.858 304.865 479.002 304.734 479.002 301.31C479.002 298.343 478.725 297.901 477.252 298.514C470.205 301.446 463.662 299.782 462.448 294.75C461.835 292.205 462.013 292 464.844 292C476.573 292 484.002 287.25 484.002 279.751C484.002 272.088 475.575 268.045 466.195 271.207ZM496.143 271.133C491.948 272.122 491.807 272.277 492.403 275.257C493.2 279.238 493.135 279.198 496.769 277.931C501.812 276.173 505.502 277.04 505.502 279.983C505.502 282.125 504.543 282.846 498.502 285.245C487.837 289.48 483.972 296.228 488.505 302.701C491.463 306.924 503.089 308.165 509.175 304.907C511.724 303.543 511.797 297.455 509.252 298.514C505.239 300.184 498.448 300.243 497.101 298.62C494.925 295.997 496.471 294.385 504 291.431C512.464 288.111 515.002 285.367 515.002 279.539C515.002 271.905 507.344 268.491 496.143 271.133ZM569.972 272.25C556.717 278.946 554.902 301.144 567.226 305.834C579.42 310.475 591.011 299.862 590.998 284.068C590.989 272.635 580.68 266.841 569.972 272.25ZM648.381 271.389C641.564 274.46 636.399 285.713 637.226 295.689C638.079 305.972 646.187 309.936 654.219 303.998L657.002 301.94V303.97C657.002 305.623 657.651 306 660.502 306C662.427 306 664.002 305.801 664.002 305.558C664.002 305.314 665.577 297.863 667.502 289C669.427 280.137 671.002 272.461 671.002 271.942C671.002 270.836 664.009 270.644 663.987 271.75C663.929 274.571 662.06 275.294 660.321 273.166C658.036 270.369 652.481 269.542 648.381 271.389ZM692.502 271.443C687.507 273.293 685.99 275.148 682.479 283.691C675.969 299.532 676.279 299 673.558 299C670.492 299 669.665 305.273 672.584 306.393C679.214 308.937 684.352 304.204 688.951 291.318C692.578 281.151 694.852 278 698.56 278C700.623 278 700.951 278.379 700.509 280.25C699.473 284.642 695.002 305.309 695.002 305.706C695.002 305.928 697.109 305.972 699.685 305.805L704.367 305.5L707.779 289.144C709.842 279.252 710.829 272.427 710.275 271.873C708.555 270.153 696.755 269.867 692.502 271.443ZM954.195 271.207C944.182 274.583 937.628 291.955 943.028 300.81C946.43 306.391 952.326 307.982 961.953 305.917C966.858 304.865 967.002 304.734 967.002 301.31C967.002 298.343 966.725 297.901 965.252 298.514C958.205 301.446 951.662 299.782 950.448 294.75C949.835 292.205 950.013 292 952.844 292C964.573 292 972.002 287.25 972.002 279.751C972.002 272.088 963.575 268.045 954.195 271.207ZM1038 270.702C1037.18 271.001 1034.99 272.653 1033.14 274.373L1029.79 277.5L1030.47 274.25C1031.15 271.07 1031.09 271 1027.65 271C1023.54 271 1024.12 269.642 1019.99 289C1018.29 296.975 1016.71 304.063 1016.48 304.75C1016.19 305.635 1017.47 306 1020.9 306H1025.73L1027.45 297.25C1030.29 282.826 1034.37 276.39 1039.44 278.337C1041.56 279.15 1041.39 282.485 1038.61 295.25L1036.26 306H1045.64L1046.96 299.25C1048.96 289.079 1050.77 283.56 1053.07 280.638C1055.43 277.638 1059.72 277.089 1060.7 279.66C1061.25 281.078 1057.76 300.873 1056.29 304.702C1055.92 305.657 1057.08 306 1060.67 306H1065.55L1067.8 294.75C1071.4 276.771 1070.52 271.751 1063.57 270.447C1059.57 269.696 1053.49 272.211 1051.84 275.307C1050.77 277.296 1050.7 277.277 1049.32 274.63C1047.33 270.847 1042.36 269.121 1038 270.702ZM1094.5 271.117C1093.4 271.753 1091.45 273.224 1090.17 274.387L1087.84 276.5L1088.53 273.75C1089.18 271.138 1089.04 271 1085.68 271C1081.45 271 1082.29 268.706 1076.53 296C1074.04 307.825 1071.76 318.538 1071.47 319.806C1070.96 321.995 1071.18 322.097 1075.7 321.806L1080.45 321.5L1082.37 311.708C1084.26 302.024 1084.3 301.939 1086.17 303.946C1095.85 314.339 1112.51 294.751 1108.06 278.213C1106.32 271.749 1099.54 268.202 1094.5 271.117ZM523.141 281.75C520.621 294.405 520.437 300.748 522.503 303.698C525.691 308.25 535.051 307.387 538.935 302.184L540.939 299.5L540.97 302.75C541 305.748 541.255 306 544.276 306H547.549L550.843 290.25C552.655 281.587 554.37 273.686 554.655 272.692C555.112 271.1 554.604 270.92 550.411 271.192L545.648 271.5L543.51 281C540.439 294.646 537.527 299.496 532.807 298.827C529.557 298.366 529.473 295.43 532.328 282.205L534.746 271H525.282L523.141 281.75ZM602.611 272.75C602.322 273.712 600.695 281.025 598.994 289C597.294 296.975 595.714 304.063 595.484 304.75C595.187 305.636 596.477 306 599.912 306H604.758L606.149 298.75L607.539 291.5L613.27 291.2C616.423 291.035 618.995 291.26 618.986 291.7C618.978 292.14 618.319 295.2 617.522 298.5C616.725 301.8 616.057 304.862 616.038 305.305C616.018 305.747 618.122 305.972 620.712 305.805C625.206 305.514 625.456 305.34 626.156 302C626.559 300.075 628.213 292.313 629.831 284.75L632.772 271H623.369L622.077 277.5L620.785 284H609.265L610.618 278.25C611.362 275.087 611.978 272.163 611.986 271.75C612.022 270.03 603.144 270.977 602.611 272.75ZM718.763 284.008C717.183 291.963 716.457 298.055 716.895 299.691C719.44 309.21 739.932 308.989 744.486 299.393C748.507 290.919 742.236 283.901 731.885 285.289C727.455 285.883 727.518 286.086 729.413 277.25L730.754 271H721.346L718.763 284.008ZM758.611 272.75C758.322 273.712 756.695 281.025 754.994 289C753.294 296.975 751.714 304.063 751.484 304.75C751.187 305.636 752.477 306 755.912 306H760.758L762.149 298.75L763.539 291.5L769.27 291.2C772.423 291.035 774.995 291.26 774.986 291.7C774.978 292.14 774.319 295.2 773.522 298.5C772.725 301.8 772.057 304.862 772.038 305.305C772.018 305.747 774.122 305.972 776.712 305.805C781.206 305.514 781.456 305.34 782.156 302C782.559 300.075 784.213 292.313 785.831 284.75L788.772 271H779.369L778.077 277.5L776.785 284H765.265L766.618 278.25C767.362 275.087 767.978 272.163 767.986 271.75C768.022 270.03 759.144 270.977 758.611 272.75ZM796.237 281.282C792.104 300.299 793.494 305.283 803.308 306.629C816.133 308.386 825.844 296.741 818.589 288.306C816.48 285.854 815.47 285.5 810.589 285.5C807.507 285.5 805.018 285.052 805.037 284.5C805.056 283.95 805.676 280.688 806.413 277.25L807.754 271H798.471L796.237 281.282ZM831.489 272.25C831.242 272.938 829.668 280.025 827.991 288C826.315 295.975 824.701 303.288 824.405 304.25C823.944 305.749 824.559 306 828.688 306H833.51L836.908 289.75C838.777 280.813 840.511 272.938 840.761 272.25C841.083 271.364 839.864 271 836.578 271C833.774 271 831.761 271.494 831.489 272.25ZM848.141 281.75C845.621 294.405 845.437 300.748 847.503 303.698C850.691 308.25 860.051 307.387 863.935 302.184L865.939 299.5L865.97 302.75C866 305.748 866.255 306 869.276 306H872.549L875.843 290.25C877.655 281.587 879.37 273.686 879.655 272.692C880.112 271.1 879.604 270.92 875.411 271.192L870.648 271.5L868.51 281C865.439 294.646 862.527 299.496 857.807 298.827C854.557 298.366 854.473 295.43 857.328 282.205L859.746 271H850.282L848.141 281.75ZM904.141 281.75C900.628 299.389 901.515 305.075 908 306.5C911.633 307.297 917.129 305.622 919.51 302.991C921.232 301.089 921.292 301.098 923.252 303.59C925.256 306.139 925.272 307.123 923.441 315.75C922.753 318.996 922.757 319 926.81 319C931.378 319 931.14 319.385 933.476 308.185C935.399 298.967 935.4 299 933.002 299C930.135 299 930.483 295.468 935.544 273.194C936.041 271.008 935.823 270.904 931.358 271.194L926.648 271.5L924.51 281C921.439 294.646 918.527 299.496 913.807 298.827C910.557 298.366 910.473 295.43 913.328 282.205L915.746 271H906.282L904.141 281.75ZM983.611 272.75C983.322 273.712 981.695 281.025 979.994 289C978.294 296.975 976.714 304.063 976.484 304.75C976.187 305.636 977.477 306 980.912 306H985.758L987.149 298.75L988.539 291.5L994.27 291.2C997.423 291.035 999.995 291.26 999.986 291.7C999.978 292.14 999.319 295.2 998.522 298.5C997.725 301.8 997.057 304.862 997.038 305.305C997.018 305.747 999.122 305.972 1001.71 305.805C1006.21 305.514 1006.46 305.34 1007.16 302C1007.56 300.075 1009.21 292.313 1010.83 284.75L1013.77 271H1004.37L1003.08 277.5L1001.79 284H990.265L991.618 278.25C992.362 275.087 992.978 272.163 992.986 271.75C993.022 270.03 984.144 270.977 983.611 272.75ZM466.591 280.077C463.101 284.224 463.244 286 467.068 286C472.776 286 477.48 281.486 474.949 278.436C472.976 276.059 469.377 276.766 466.591 280.077ZM954.591 280.077C951.101 284.224 951.244 286 955.068 286C960.776 286 965.48 281.486 962.949 278.436C960.976 276.059 957.377 276.766 954.591 280.077ZM572.133 280.561C566.743 287.413 567.508 299 573.351 299C579.021 299 584.192 285.992 580.663 280.606C578.444 277.219 574.777 277.2 572.133 280.561ZM652.225 278.653C650.502 279.37 647.423 285.667 646.615 290.127C644.346 302.645 655.346 301.512 658.62 288.891C660.612 281.211 657.613 276.409 652.225 278.653ZM1090.46 280.636C1084.7 286.857 1084.63 299 1090.36 299C1094.95 299 1099 291.94 1099 283.957C1099 277.678 1094.74 276.021 1090.46 280.636ZM726.392 293.427C724.99 297.079 726.415 299.493 730.157 299.805C734.562 300.172 737.615 297.014 735.919 293.845C734.684 291.537 727.242 291.211 726.392 293.427ZM803.669 292.667C802.388 293.947 803.001 299.062 804.504 299.639C808.842 301.304 813.653 296.695 810.962 293.452C809.737 291.975 804.883 291.453 803.669 292.667ZM1027.01 340.75C1026.39 343.913 1025.72 347.009 1025.52 347.632C1025.32 348.254 1022.81 349.328 1019.93 350.017C1010.02 352.395 1003.15 361.787 1004.25 371.474C1005.05 378.628 1008.07 381.897 1016.14 384.352C1017.62 384.802 1017.64 385.413 1016.4 390.675C1014.24 399.881 1014.33 400.164 1019.24 399.807L1023.47 399.5L1024.83 392.387L1026.19 385.275L1031.9 383.689C1041.92 380.904 1047.24 374.286 1047.33 364.512C1047.4 357.431 1044.94 353.298 1039.18 350.783C1036.61 349.66 1034.41 348.668 1034.29 348.579C1034.18 348.49 1034.73 345.736 1035.51 342.458C1036.29 339.181 1036.95 336.163 1036.97 335.75C1036.99 335.337 1035.01 335 1032.57 335H1028.14L1027.01 340.75ZM435.002 348.656C434.177 348.98 431.991 350.653 430.144 352.373L426.786 355.5L427.474 352.25C428.146 349.07 428.085 349 424.649 349C420.544 349 421.122 347.642 416.994 367C415.294 374.975 413.714 382.063 413.484 382.75C413.187 383.635 414.474 384 417.897 384H422.728L424.449 375.25C426.613 364.241 429.16 358.341 432.38 356.874C438.407 354.127 439.273 357.852 436.024 372.551C433.376 384.528 433.262 384 438.502 384C440.977 384 443.002 383.779 443.002 383.509C443.002 383.239 444.17 377.578 445.598 370.929C448.366 358.042 448.255 353.444 445.106 350.595C443.106 348.785 437.44 347.697 435.002 348.656ZM464.972 350.25C451.717 356.946 449.902 379.144 462.226 383.834C474.42 388.475 486.011 377.862 485.998 362.068C485.989 350.635 475.68 344.841 464.972 350.25ZM505.793 348.988C491.325 353.35 486.689 377.325 499.214 383.01C509.153 387.521 522.002 382.993 522.002 374.98C522.002 370.992 520.402 368.016 518.217 367.941C516.698 367.889 516.721 367.746 518.414 366.691C524.142 363.123 525.844 357.074 522.473 352.261C519.982 348.706 511.955 347.131 505.793 348.988ZM654.195 349.207C644.182 352.583 637.628 369.955 643.028 378.81C646.43 384.391 652.326 385.982 661.953 383.917C666.858 382.865 667.002 382.734 667.002 379.31C667.002 376.343 666.725 375.901 665.252 376.514C658.205 379.446 651.662 377.782 650.448 372.75C649.835 370.205 650.013 370 652.844 370C664.573 370 672.002 365.25 672.002 357.751C672.002 350.088 663.575 346.045 654.195 349.207ZM861.793 348.988C847.325 353.35 842.689 377.325 855.214 383.01C865.153 387.521 878.002 382.993 878.002 374.98C878.002 370.992 876.402 368.016 874.217 367.941C872.698 367.889 872.721 367.746 874.414 366.691C880.142 363.123 881.844 357.074 878.473 352.261C875.982 348.706 867.955 347.131 861.793 348.988ZM897.381 349.389C890.564 352.46 885.399 363.713 886.226 373.689C887.079 383.972 895.187 387.936 903.219 381.998L906.002 379.94V381.97C906.002 383.623 906.651 384 909.502 384C911.427 384 913.002 383.801 913.002 383.558C913.002 383.314 914.577 375.863 916.502 367C918.427 358.137 920.002 350.461 920.002 349.942C920.002 348.836 913.009 348.644 912.987 349.75C912.929 352.571 911.06 353.294 909.321 351.166C907.036 348.369 901.481 347.542 897.381 349.389ZM940.502 349.443C935.507 351.293 933.99 353.148 930.479 361.691C923.969 377.532 924.279 377 921.558 377C918.492 377 917.665 383.273 920.584 384.393C927.214 386.937 932.352 382.204 936.951 369.318C940.578 359.151 942.852 356 946.56 356C948.623 356 948.951 356.379 948.509 358.25C947.473 362.642 943.002 383.309 943.002 383.706C943.002 383.928 945.109 383.972 947.685 383.805L952.367 383.5L955.779 367.144C957.842 357.252 958.829 350.427 958.275 349.873C956.555 348.153 944.755 347.867 940.502 349.443ZM1141.38 349.389C1134.56 352.46 1129.4 363.713 1130.23 373.689C1131.08 383.972 1139.19 387.936 1147.22 381.998L1150 379.94V381.97C1150 383.623 1150.65 384 1153.5 384C1155.43 384 1157 383.801 1157 383.558C1157 383.314 1158.58 375.863 1160.5 367C1162.43 358.137 1164 350.461 1164 349.942C1164 348.836 1157.01 348.644 1156.99 349.75C1156.93 352.571 1155.06 353.294 1153.32 351.166C1151.04 348.369 1145.48 347.542 1141.38 349.389ZM533.237 359.282C529.104 378.299 530.494 383.283 540.308 384.629C553.133 386.386 562.844 374.741 555.589 366.306C553.48 363.854 552.47 363.5 547.589 363.5C544.507 363.5 542.018 363.052 542.037 362.5C542.056 361.95 542.676 358.688 543.413 355.25L544.754 349H535.471L533.237 359.282ZM568.489 350.25C568.242 350.938 566.668 358.025 564.991 366C563.315 373.975 561.701 381.288 561.405 382.25C560.944 383.749 561.559 384 565.688 384H570.51L573.908 367.75C575.777 358.813 577.511 350.938 577.761 350.25C578.083 349.364 576.864 349 573.578 349C570.774 349 568.761 349.494 568.489 350.25ZM585.196 359.75C581.229 379.052 582.586 384.5 591.358 384.5C595.106 384.5 596.464 383.944 599.202 381.291L602.513 378.082L604.176 380.98C607.279 386.386 613.968 386.052 620.267 380.176L623.033 377.596L622.392 380.798C621.768 383.921 621.84 384 625.31 384C629.441 384 628.807 385.479 632.938 366.203C636.845 347.971 636.921 349 631.667 349H627.333L625.138 358.75C622.565 370.178 620.513 374.81 617.392 376.232C611.469 378.931 610.814 375.213 614.398 359.25L616.699 349H607.276L605.555 357.75C602.788 371.825 599.588 377.504 594.807 376.827C591.557 376.366 591.473 373.43 594.328 360.205L596.746 349H587.405L585.196 359.75ZM682.611 350.75C682.322 351.712 680.695 359.025 678.994 367C677.294 374.975 675.714 382.063 675.484 382.75C675.187 383.636 676.477 384 679.912 384H684.758L686.149 376.75L687.539 369.5L693.27 369.2C696.423 369.035 698.995 369.26 698.986 369.7C698.978 370.14 698.319 373.2 697.522 376.5C696.725 379.8 696.057 382.862 696.038 383.305C696.018 383.747 698.122 383.972 700.712 383.805C705.206 383.514 705.456 383.34 706.156 380C706.559 378.075 708.213 370.313 709.831 362.75L712.772 349H703.369L702.077 355.5L700.785 362H689.265L690.618 356.25C691.362 353.087 691.978 350.163 691.986 349.75C692.022 348.03 683.144 348.977 682.611 350.75ZM720.141 359.75C717.621 372.405 717.437 378.748 719.503 381.698C722.691 386.25 732.051 385.387 735.935 380.184L737.939 377.5L737.97 380.75C738 383.748 738.255 384 741.276 384H744.549L747.843 368.25C749.655 359.587 751.37 351.686 751.655 350.692C752.112 349.1 751.604 348.92 747.411 349.192L742.648 349.5L740.51 359C737.439 372.646 734.527 377.496 729.807 376.827C726.557 376.366 726.473 373.43 729.328 360.205L731.746 349H722.282L720.141 359.75ZM767.54 350.499C760.183 353.119 757.379 361.579 762.176 366.686C763.372 367.958 763.828 369 763.189 369C762.55 369 760.891 370.8 759.502 373C757.897 375.542 756.231 377 754.929 377C751.685 377 752.548 384.365 755.847 384.832C760.233 385.453 763.93 382.972 767.345 377.114C769.8 372.903 771.261 371.424 773.192 371.195L775.765 370.89L774.399 376.695C773.648 379.888 773.026 382.837 773.018 383.25C773.009 383.663 775.018 384 777.483 384C781.303 384 782.044 383.668 782.504 381.75C784.094 375.128 789.002 351.346 789.002 350.263C789.002 348.48 772.707 348.658 767.54 350.499ZM816.611 350.75C816.322 351.712 814.695 359.025 812.994 367C811.294 374.975 809.714 382.063 809.484 382.75C809.187 383.635 810.471 384 813.877 384H818.689L820.506 375.343L822.323 366.685L826.673 375.343L831.024 384H841.024L837.013 376.022C831.998 366.047 831.907 366.924 838.761 359.086C848.282 348.198 848.01 349 842.18 349H837.112L830.057 357.006C826.177 361.41 823.018 364.672 823.037 364.256C823.056 363.84 823.716 360.575 824.502 357C825.288 353.425 825.948 350.163 825.967 349.75C826.048 348.027 817.143 348.978 816.611 350.75ZM967.141 359.75C964.621 372.405 964.437 378.748 966.503 381.698C969.691 386.25 979.051 385.387 982.935 380.184L984.939 377.5L984.97 380.75C985 383.748 985.255 384 988.276 384H991.549L994.843 368.25C996.655 359.587 998.37 351.686 998.655 350.692C999.112 349.1 998.604 348.92 994.411 349.192L989.648 349.5L987.51 359C984.439 372.646 981.527 377.496 976.807 376.827C973.557 376.366 973.473 373.43 976.328 360.205L978.746 349H969.282L967.141 359.75ZM1056.14 359.75C1053.62 372.405 1053.44 378.748 1055.5 381.698C1058.69 386.25 1068.05 385.387 1071.94 380.184L1073.94 377.5L1073.97 380.75C1074 383.748 1074.26 384 1077.28 384H1080.55L1083.84 368.25C1085.66 359.587 1087.37 351.686 1087.66 350.692C1088.11 349.1 1087.6 348.92 1083.41 349.192L1078.65 349.5L1076.51 359C1073.44 372.646 1070.53 377.496 1065.81 376.827C1062.56 376.366 1062.47 373.43 1065.33 360.205L1067.75 349H1058.28L1056.14 359.75ZM1097.61 350.75C1097.32 351.712 1095.7 359.025 1093.99 367C1092.29 374.975 1090.71 382.063 1090.48 382.75C1090.19 383.635 1091.47 384 1094.88 384H1099.69L1101.51 375.343L1103.32 366.685L1107.67 375.343L1112.02 384H1122.02L1118.01 376.022C1113 366.047 1112.91 366.924 1119.76 359.086C1129.28 348.198 1129.01 349 1123.18 349H1118.11L1111.06 357.006C1107.18 361.41 1104.02 364.672 1104.04 364.256C1104.06 363.84 1104.72 360.575 1105.5 357C1106.29 353.425 1106.95 350.163 1106.97 349.75C1107.05 348.027 1098.14 348.978 1097.61 350.75ZM1172.14 359.75C1168.63 377.389 1169.52 383.075 1176 384.5C1179.63 385.297 1185.13 383.622 1187.51 380.991C1189.23 379.089 1189.29 379.098 1191.25 381.59C1193.26 384.139 1193.27 385.123 1191.44 393.75C1190.75 396.996 1190.76 397 1194.81 397C1199.38 397 1199.14 397.385 1201.48 386.185C1203.4 376.967 1203.4 377 1201 377C1198.14 377 1198.48 373.468 1203.54 351.194C1204.04 349.008 1203.82 348.904 1199.36 349.194L1194.65 349.5L1192.51 359C1189.44 372.646 1186.53 377.496 1181.81 376.827C1178.56 376.366 1178.47 373.43 1181.33 360.205L1183.75 349H1174.28L1172.14 359.75ZM1212.14 359.75C1209.62 372.405 1209.44 378.748 1211.5 381.698C1214.69 386.25 1224.05 385.387 1227.94 380.184L1229.94 377.5L1229.97 380.75C1230 383.748 1230.26 384 1233.28 384H1236.55L1239.84 368.25C1241.66 359.587 1243.37 351.686 1243.66 350.692C1244.11 349.1 1243.6 348.92 1239.41 349.192L1234.65 349.5L1232.51 359C1229.44 372.646 1226.53 377.496 1221.81 376.827C1218.56 376.366 1218.47 373.43 1221.33 360.205L1223.75 349H1214.28L1212.14 359.75ZM1251.14 359.75C1248.62 372.405 1248.44 378.748 1250.5 381.698C1253.69 386.25 1263.05 385.387 1266.94 380.184L1268.94 377.5L1268.97 380.75C1269 383.748 1269.26 384 1272.28 384H1275.55L1278.84 368.25C1280.66 359.587 1282.37 351.686 1282.66 350.692C1283.11 349.1 1282.6 348.92 1278.41 349.192L1273.65 349.5L1271.51 359C1268.44 372.646 1265.53 377.496 1260.81 376.827C1257.56 376.366 1257.47 373.43 1260.33 360.205L1262.75 349H1253.28L1251.14 359.75ZM505.636 358.023C501.992 362.354 502.283 363 507.88 363C513.295 363 515.348 361.465 514.829 357.805C514.285 353.968 508.941 354.095 505.636 358.023ZM654.591 358.077C651.101 362.224 651.244 364 655.068 364C660.776 364 665.48 359.486 662.949 356.436C660.976 354.059 657.377 354.766 654.591 358.077ZM861.636 358.023C857.992 362.354 858.283 363 863.88 363C869.295 363 871.348 361.465 870.829 357.805C870.285 353.968 864.941 354.095 861.636 358.023ZM467.133 358.561C461.743 365.413 462.508 377 468.351 377C474.021 377 479.192 363.992 475.663 358.606C473.444 355.219 469.777 355.2 467.133 358.561ZM770.573 357.571C767.331 360.814 769.338 365 774.135 365C776.889 365 777.108 364.681 778.428 358.75C779.004 356.163 778.835 356 775.592 356C773.696 356 771.438 356.707 770.573 357.571ZM901.225 356.653C899.502 357.37 896.423 363.667 895.615 368.127C893.346 380.645 904.346 379.512 907.62 366.891C909.612 359.211 906.613 354.409 901.225 356.653ZM1019.42 357.145C1014.22 359.668 1011.78 370.882 1015.52 375.021C1018.42 378.228 1019.24 377.036 1021.56 366.187C1023.8 355.698 1023.65 355.092 1019.42 357.145ZM1030.29 366.249C1027.93 377.66 1027.99 378.071 1031.81 375.953C1037.49 372.805 1040.01 362.006 1036 358C1032.88 354.875 1032.55 355.354 1030.29 366.249ZM1145.23 356.653C1143.5 357.37 1140.42 363.667 1139.62 368.127C1137.35 380.645 1148.35 379.512 1151.62 366.891C1153.61 359.211 1150.61 354.409 1145.23 356.653ZM501.002 371.777C501.002 374.759 503.931 378 506.624 378C511.942 378 514.821 374.219 511.802 371.2C509.775 369.173 501.002 369.642 501.002 371.777ZM540.669 370.667C539.388 371.947 540.001 377.062 541.504 377.639C545.842 379.304 550.653 374.695 547.962 371.452C546.737 369.975 541.883 369.453 540.669 370.667ZM857.002 371.777C857.002 374.759 859.931 378 862.624 378C867.942 378 870.821 374.219 867.802 371.2C865.775 369.173 857.002 369.642 857.002 371.777Z" fill="white" stroke="white"/>
</g>
<defs>
<clipPath id="clip0_4069_3070">
<rect width="1284" height="512" fill="white"/>
</clipPath>
</defs>
</svg>
